<?xml version="1.0" standalone="no"?>
<!DOCTYPE svg PUBLIC "-//W3C//DTD SVG 1.1//EN" "http://www.w3.org/Graphics/SVG/1.1/DTD/svg11.dtd" >
<svg xmlns="http://www.w3.org/2000/svg">
<metadata>Generated by IcoMoon</metadata>
<defs>
<font id="normal" horiz-adv-x="1024">
<font-face units-per-em="1024" ascent="960" descent="-64" />
<missing-glyph horiz-adv-x="1024" />
<glyph unicode="&#x20;" horiz-adv-x="512" d="" />
<glyph unicode="&#xe001;" glyph-name="archived-line" d="M965.632 807.765l-74.411 88.747c-14.124 17.946-35.845 29.364-60.233 29.364-0.424 0-0.848-0.003-1.271-0.010l0.064 0.001h-636.587c-0.115 0.001-0.251 0.001-0.387 0.001-24.635 0-46.608-11.396-60.935-29.204l-0.118-0.151-73.387-88.747c-15.048-18.482-24.181-42.303-24.235-68.255v-701.111c0-37.703 30.564-68.267 68.267-68.267v0h819.2c37.703 0 68.267 30.564 68.267 68.267v0 701.099c-0.054 25.964-9.187 49.784-24.392 68.466l0.157-0.199zM190.123 857.6h636.928l49.835-52.565h-729.771zM921.6 106.667v-68.267h-819.2v698.027h819.2zM619.52 554.155h-212.992v-106.155h-186.027l292.523-290.475 292.523 290.475h-186.027v106.155z" />
<glyph unicode="&#xe002;" glyph-name="download-line" d="M853.333 163.328h-682.667c-37.703 0-68.267-30.564-68.267-68.267v0-7.851c0-37.703 30.564-68.267 68.267-68.267v0h682.667c37.703 0 68.267 30.564 68.267 68.267v0 7.851c0 37.703-30.564 68.267-68.267 68.267v0zM612.352 857.6v-322.219h159.061l-88.747-80.213-170.667-157.013-170.667 157.013-89.771 80.213h160.768v322.219h200.021zM612.352 925.867h-200.021c-37.703 0-68.267-30.564-68.267-68.267v0-253.952h-92.501c-0.253 0.003-0.552 0.005-0.852 0.005-37.703 0-68.267-30.564-68.267-68.267 0-19.998 8.599-37.988 22.302-50.474l0.054-0.049 87.723-80.213 172.373-157.013c12.076-11.004 28.206-17.743 45.909-17.743s33.833 6.739 45.964 17.792l-0.054-0.049 172.373 157.013 90.112 80.213c13.753 12.534 22.35 30.522 22.35 50.518 0 37.703-30.564 68.267-68.267 68.267-0.058 0-0.115 0-0.173 0h-92.492v253.952c0 37.703-30.564 68.267-68.267 68.267v0z" />
<glyph unicode="&#xe003;" glyph-name="person-vip" d="M955.733 634.368c-9.092-12.159-14.558-27.491-14.558-44.099 0-2.019 0.081-4.019 0.239-5.996l-0.017 0.261c-12.547 11.864-29.456 19.229-48.083 19.456h-0.045c-45.397 0-82.261-46.080-82.261-102.4-0.005-0.415-0.008-0.905-0.008-1.395 0-25.874 8.32-49.804 22.432-69.262l-0.237 0.343c6.197-8.952 9.899-20.042 9.899-31.996 0-0.031 0-0.063 0-0.094v0.005c0-44.032-51.541-79.872-115.029-79.872s-113.664 33.792-113.664 77.824c0.459 12.905 4.874 24.696 12.060 34.292l-0.113-0.158 25.259 25.259c13.872 13.905 22.469 33.079 22.528 54.261v15.371c0 43.358-35.149 78.507-78.507 78.507h-7.168c11.297 19.669 18.671 42.934 20.45 67.747l0.030 0.52s2.389 105.131-93.867 105.813-93.867-109.227-93.867-109.227c0.302-24.196 7.381-46.679 19.42-65.712l-0.306 0.517h-4.437c-43.358 0-78.507-35.149-78.507-78.507v-15.36c-0.003-0.261-0.005-0.568-0.005-0.877 0-28.49 15.176-53.435 37.884-67.193l0.35-0.197v-1.707c15.122-10.48 25.185-27.342 26.275-46.603l0.007-0.16c0-41.984-53.248-75.776-119.467-75.776-0.064 0-0.14 0-0.215 0-17.051 0-33.549 2.368-49.183 6.793l1.27-0.307c-10.875 2.779-20.419 6.756-29.204 11.892l0.532-0.287c-23.611 9.631-40.406 31.45-42.649 57.43l-0.018 0.255c0.36 9.375 3.105 18.039 7.642 25.493l-0.132-0.234c17.404 20.179 28.005 46.653 28.005 75.603 0 0.661-0.006 1.321-0.017 1.979l0.001-0.099c0 57.003-36.864 102.4-82.261 102.4-1.869 0.174-4.042 0.273-6.238 0.273-16.34 0-31.396-5.493-43.424-14.734l0.169 0.125c0 12.629-15.36 87.723-80.213 77.824l76.459-442.709c4.96-27.606 24.944-49.527 51.027-57.214l0.514-0.13c110.649-30.864 237.709-48.603 368.913-48.603 6.865 0 13.719 0.049 20.561 0.145l-1.036-0.012c7.82-0.183 17.034-0.288 26.271-0.288 123.199 0 242.062 18.569 353.941 53.061l-8.501-2.256c24.912 8.6 43.337 29.866 47.728 55.899l0.059 0.421 76.8 443.733c-25.39-0.606-47.984-12.078-63.394-29.927l-0.094-0.111z" />
<glyph unicode="&#xe004;" glyph-name="back-line" d="M955.733 44.203c-18.851 0-34.133 15.282-34.133 34.133v0 184.661c0 88.036-71.367 159.403-159.403 159.403h-614.4l319.488-320.171c6.134-6.17 9.926-14.674 9.926-24.064s-3.792-17.894-9.927-24.066l0.002 0.002c-6.187-6.236-14.76-10.097-24.235-10.097s-18.048 3.86-24.232 10.094l-375.469 375.469c-5.71 6.086-9.217 14.298-9.217 23.329 0 0.078 0 0.157 0.001 0.235v-0.012c-0.003 0.159-0.004 0.347-0.004 0.535 0 9.379 3.782 17.874 9.905 24.043l369.662 370.003c5.93 5.101 13.703 8.208 22.202 8.208 18.851 0 34.133-15.282 34.133-34.133 0-8.499-3.106-16.273-8.245-22.247l0.038 0.045-307.2-308.907h607.573c125.738 0 227.669-101.931 227.669-227.669v0-184.661c0-18.851-15.282-34.133-34.133-34.133v0z" />
<glyph unicode="&#xe005;" glyph-name="send-msg-single-line" d="M955.733 857.6c-18.851 0-34.133-15.282-34.133-34.133v0-184.661c-0.194-87.889-71.487-159.061-159.402-159.061 0 0 0 0 0 0h-614.4l318.805 319.829c6.134 6.17 9.926 14.674 9.926 24.064s-3.792 17.894-9.927 24.066l0.002-0.002c-6.187 6.236-14.76 10.097-24.235 10.097s-18.048-3.86-24.232-10.094l-375.469-375.469c-5.321-5.992-8.572-13.926-8.572-22.62 0-0.568 0.014-1.132 0.041-1.693l-0.003 0.079c-0.003-0.159-0.004-0.347-0.004-0.535 0-9.379 3.782-17.874 9.905-24.043l369.662-369.321c6.298-7.322 15.573-11.931 25.926-11.931 18.851 0 34.133 15.282 34.133 34.133 0 10.352-4.609 19.628-11.886 25.888l-0.045 0.038-307.2 309.248h607.573c0 0 0 0 0 0 125.618 0 227.475 101.737 227.669 227.309v184.68c0 18.851-15.282 34.133-34.133 34.133v0z" />
<glyph unicode="&#xe006;" glyph-name="send-msg-line" d="M955.733 857.6h-510.293c-37.703 0-68.267-30.564-68.267-68.267v0-273.067c0-37.703-30.564-68.267-68.267-68.267v0h-240.64c-37.703 0-68.267-30.564-68.267-68.267v0-273.067c0-37.703 30.564-68.267 68.267-68.267v0h887.467c37.703 0 68.267 30.564 68.267 68.267v0 682.667c0 37.703-30.564 68.267-68.267 68.267v0zM955.733 106.667h-887.467v273.067h238.933c75.405 0 136.533 61.128 136.533 136.533v0 273.067h512zM853.333 525.141c-18.851 0-34.133-15.282-34.133-34.133v0-68.267c0-20.548-16.657-37.205-37.205-37.205h-171.008l81.579 81.579c6.324 6.2 10.244 14.832 10.244 24.38 0 0.189-0.002 0.377-0.005 0.566v-0.028c0.062 0.77 0.097 1.668 0.097 2.574 0 18.851-15.282 34.133-34.133 34.133-10.601 0-20.073-4.832-26.333-12.415l-0.046-0.058-140.288-140.629c-6.324-6.2-10.244-14.832-10.244-24.38 0-0.189 0.002-0.377 0.005-0.566v0.028c-0.007-0.26-0.011-0.565-0.011-0.872 0-9.551 3.923-18.186 10.245-24.381l0.006-0.006 138.581-138.923c6.421-6.421 15.291-10.392 25.088-10.392 19.595 0 35.48 15.885 35.48 35.48 0 9.797-3.971 18.667-10.392 25.088v0l-76.459 74.752h166.229c59.132 0.574 106.846 48.643 106.846 107.857 0 0.482-0.003 0.963-0.009 1.443l0.001-0.073v68.267c0.039 0.612 0.061 1.328 0.061 2.048 0 18.851-15.282 34.133-34.133 34.133-0.022 0-0.043 0-0.065 0h0.003z" />
<glyph unicode="&#xe007;" glyph-name="plus-line" d="M887.467 482.133h-341.333v341.333c0 18.851-15.282 34.133-34.133 34.133s-34.133-15.282-34.133-34.133v0-341.333h-341.333c-18.851 0-34.133-15.282-34.133-34.133s15.282-34.133 34.133-34.133v0h341.333v-341.333c0-18.851 15.282-34.133 34.133-34.133s34.133 15.282 34.133 34.133v0 341.333h341.333c18.851 0 34.133 15.282 34.133 34.133s-15.282 34.133-34.133 34.133v0z" />
<glyph unicode="&#xe008;" glyph-name="minus-line" d="M136.533 482.133h750.933c18.851 0 34.133-15.282 34.133-34.133s-15.282-34.133-34.133-34.133h-750.933c-18.851 0-34.133 15.282-34.133 34.133s15.282 34.133 34.133 34.133z" />
<glyph unicode="&#xe009;" glyph-name="round-minus-full" d="M512 960c-282.77 0-512-229.23-512-512s229.23-512 512-512c282.77 0 512 229.23 512 512v0c0 282.77-229.23 512-512 512v0zM750.933 413.867h-477.867c-18.851 0-34.133 15.282-34.133 34.133s15.282 34.133 34.133 34.133v0h477.867c18.851 0 34.133-15.282 34.133-34.133s-15.282-34.133-34.133-34.133v0z" />
<glyph unicode="&#xe010;" glyph-name="round-minus-line" d="M512 960c-282.77 0-512-229.23-512-512s229.23-512 512-512c282.77 0 512 229.23 512 512v0c0 282.77-229.23 512-512 512v0zM512 4.267c-245.067 0-443.733 198.666-443.733 443.733s198.666 443.733 443.733 443.733c245.067 0 443.733-198.666 443.733-443.733v0c0-245.067-198.666-443.733-443.733-443.733v0zM750.933 482.133h-477.867c-18.851 0-34.133-15.282-34.133-34.133s15.282-34.133 34.133-34.133v0h477.867c18.851 0 34.133 15.282 34.133 34.133s-15.282 34.133-34.133 34.133v0z" />
<glyph unicode="&#xe011;" glyph-name="round-plus-line" d="M512 960c-282.77 0-512-229.23-512-512s229.23-512 512-512c282.77 0 512 229.23 512 512v0c0 282.77-229.23 512-512 512v0zM512 4.267c-245.067 0-443.733 198.666-443.733 443.733s198.666 443.733 443.733 443.733c245.067 0 443.733-198.666 443.733-443.733v0c0-245.067-198.666-443.733-443.733-443.733v0zM819.2 482.133h-273.067v273.067c0 18.851-15.282 34.133-34.133 34.133s-34.133-15.282-34.133-34.133v0-273.067h-273.067c-18.851 0-34.133-15.282-34.133-34.133s15.282-34.133 34.133-34.133v0h273.067v-273.067c0-18.851 15.282-34.133 34.133-34.133s34.133 15.282 34.133 34.133v0 273.067h273.067c18.851 0 34.133 15.282 34.133 34.133s-15.282 34.133-34.133 34.133v0z" />
<glyph unicode="&#xe012;" glyph-name="round-success-full" d="M512 960c-282.77 0-512-229.23-512-512s229.23-512 512-512c282.77 0 512 229.23 512 512v0c0 282.77-229.23 512-512 512v0zM799.061 584.533l-397.312-397.312c-6.187-6.236-14.76-10.097-24.235-10.097s-18.048 3.86-24.232 10.094l-164.183 164.183c-6.236 6.187-10.097 14.76-10.097 24.235s3.86 18.048 10.094 24.232l0.002 0.002c6.17 6.134 14.674 9.926 24.064 9.926s17.894-3.792 24.066-9.927l140.286-140.286 373.419 373.077c5.93 5.101 13.703 8.208 22.202 8.208 18.851 0 34.133-15.282 34.133-34.133 0-8.499-3.106-16.273-8.245-22.247l0.038 0.045z" />
<glyph unicode="&#xe013;" glyph-name="round-info-full" d="M512 960c-282.77 0-512-229.23-512-512s229.23-512 512-512c282.77 0 512 229.23 512 512v0c0 282.77-229.23 512-512 512v0zM512 652.8c-37.703 0-68.267 30.564-68.267 68.267s30.564 68.267 68.267 68.267c37.703 0 68.267-30.564 68.267-68.267v0c0-37.703-30.564-68.267-68.267-68.267v0zM580.267 174.933c0-37.703-30.564-68.267-68.267-68.267s-68.267 30.564-68.267 68.267v0 341.333c0 37.703 30.564 68.267 68.267 68.267s68.267-30.564 68.267-68.267v0z" />
<glyph unicode="&#xe014;" glyph-name="round-warning-full" d="M512 960c-282.77 0-512-229.23-512-512s229.23-512 512-512c282.77 0 512 229.23 512 512v0c0 282.77-229.23 512-512 512v0zM512 106.667c-37.703 0-68.267 30.564-68.267 68.267s30.564 68.267 68.267 68.267c37.703 0 68.267-30.564 68.267-68.267v0c0-37.703-30.564-68.267-68.267-68.267v0zM580.267 379.733c0-37.703-30.564-68.267-68.267-68.267s-68.267 30.564-68.267 68.267v0 341.333c0 37.703 30.564 68.267 68.267 68.267s68.267-30.564 68.267-68.267v0z" />
<glyph unicode="&#xe015;" glyph-name="round-time-line" d="M512 960c-282.77 0-512-229.23-512-512s229.23-512 512-512c282.77 0 512 229.23 512 512v0c0 282.77-229.23 512-512 512v0zM512 4.267c-245.067 0-443.733 198.666-443.733 443.733s198.666 443.733 443.733 443.733c245.067 0 443.733-198.666 443.733-443.733v0c0-245.067-198.666-443.733-443.733-443.733v0zM546.133 426.496v313.344c0 18.851-15.282 34.133-34.133 34.133s-34.133-15.282-34.133-34.133v0-341.333l156.331-155.307c5.709-4.451 12.985-7.137 20.887-7.137 18.851 0 34.133 15.282 34.133 34.133 0 7.56-2.458 14.546-6.618 20.202l0.066-0.095z" />
<glyph unicode="&#xe016;" glyph-name="dollar-line" d="M955.733 787.627h-887.467c-37.703 0-68.267-30.564-68.267-68.267v0-541.013c0-37.703 30.564-68.267 68.267-68.267v0h887.467c37.703 0 68.267 30.564 68.267 68.267v0 541.013c0 37.703-30.564 68.267-68.267 68.267v0zM68.267 178.347v541.013h887.467v-540.672zM512 684.544c-0.304 0.001-0.663 0.002-1.023 0.002-130.263 0-235.861-105.599-235.861-235.861s105.599-235.861 235.861-235.861c130.022 0 235.471 105.209 235.86 235.139v0.037c0.001 0.203 0.001 0.444 0.001 0.685 0 129.903-105.016 235.278-234.783 235.859h-0.055zM343.723 448c0.146 83.702 61.755 152.971 142.096 165.091l0.923 0.114c-0.078-0.92-0.123-1.991-0.123-3.072s0.044-2.152 0.132-3.211l-0.009 0.139v-22.528c-13.127-3.375-24.566-9.274-34.295-17.194l0.162 0.128c-15.279-12.614-24.943-31.557-24.943-52.758 0-0.653 0.009-1.303 0.027-1.951l-0.002 0.095c-0.045-0.927-0.071-2.013-0.071-3.105 0-19.625 8.281-37.315 21.539-49.768l0.036-0.034c18.046-14.775 39.303-26.436 62.485-33.767l1.344-0.367c11.283-4.197 20.946-10.348 29.042-18.118l-0.029 0.027c5.136-6.285 8.247-14.398 8.247-23.239 0-0.711-0.020-1.416-0.060-2.117l0.004 0.097c0.037-0.593 0.058-1.286 0.058-1.983 0-8.522-3.123-16.314-8.287-22.295l0.037 0.044c-5.695-5.757-13.596-9.323-22.33-9.323-0.911 0-1.813 0.039-2.704 0.115l0.116-0.008c-1.447-0.173-3.123-0.271-4.822-0.271-11.339 0-21.653 4.388-29.336 11.558l0.025-0.023c-6.724 8.661-10.779 19.687-10.779 31.659 0 1.592 0.072 3.167 0.212 4.723l-0.015-0.2c0 14.138-11.462 25.6-25.6 25.6v0c-0.006 0-0.013 0-0.020 0-14.344 0-26.038-11.343-26.603-25.549l-0.002-0.051v-2.389c-0.119-1.594-0.187-3.452-0.187-5.327 0-23.649 10.785-44.779 27.705-58.74l0.13-0.104c10.342-8.020 22.536-14.237 35.786-17.916l0.737-0.175v-24.235c-0.077-0.564-0.121-1.215-0.121-1.877s0.044-1.314 0.129-1.952l-0.008 0.075c-79.899 13.237-140.151 81.602-140.629 164.131v0.051zM535.893 283.136c0.077 0.564 0.121 1.215 0.121 1.877s-0.044 1.314-0.129 1.952l0.008-0.075v21.163c17.111 2.212 32.281 9.197 44.497 19.558l-0.123-0.102c14.519 12.589 23.648 31.062 23.648 51.668 0 1.276-0.035 2.544-0.104 3.803l0.008-0.175c0.061 1.138 0.096 2.471 0.096 3.811 0 19.576-7.423 37.419-19.609 50.866l0.057-0.064c-16.111 15.146-35.64 26.854-57.293 33.834l-1.075 0.299c-13.043 5.215-24.306 11.761-34.438 19.686l0.305-0.23c-6.275 5.172-10.245 12.945-10.245 21.646 0 0.19 0.002 0.38 0.006 0.569v-0.028c-0.007 0.266-0.012 0.58-0.012 0.894 0 9.037 3.512 17.253 9.245 23.359l-0.017-0.018c5.668 5.937 13.644 9.628 22.482 9.628 0.737 0 1.468-0.026 2.192-0.076l-0.098 0.005c0.562 0.035 1.218 0.055 1.879 0.055 9.936 0 18.817-4.516 24.702-11.608l0.043-0.053c5.794-7.699 9.279-17.422 9.279-27.959 0-0.851-0.023-1.697-0.068-2.537l0.005 0.117c1.882-12.861 12.736-22.656 25.919-22.869h0.022c13.012 0.121 23.665 10.063 24.909 22.765l0.008 0.104v4.779c0.006 0.367 0.010 0.799 0.010 1.233 0 20.8-8.343 39.652-21.865 53.391l0.010-0.010c-11.707 10.673-26.697 17.93-43.288 20.096l-0.403 0.043v21.845c0.078 0.92 0.123 1.991 0.123 3.072s-0.044 2.152-0.132 3.211l0.009-0.139c80.821-12.566 141.949-81.662 141.949-165.035s-61.128-152.469-141.010-164.914l-0.938-0.12z" />
<glyph unicode="&#xe017;" glyph-name="euro-full" d="M512 960c-282.77 0-512-229.23-512-512s229.23-512 512-512c282.77 0 512 229.23 512 512v0c0 282.77-229.23 512-512 512v0zM520.192 550.4c18.851 0 34.133-15.282 34.133-34.133s-15.282-34.133-34.133-34.133v0h-170.667c-1.871-10.57-2.941-22.739-2.941-35.157s1.070-24.588 3.122-36.42l-0.181 1.262h170.667c18.851 0 34.133-15.282 34.133-34.133s-15.282-34.133-34.133-34.133v0h-144.725c36.122-61.425 101.888-102.003 177.132-102.003 47.098 0 90.483 15.898 125.081 42.622l-0.474-0.352c5.73 4.494 13.044 7.208 20.992 7.208 18.873 0 34.173-15.3 34.173-34.173 0-10.925-5.127-20.653-13.107-26.909l-0.074-0.056c-45.497-35.159-103.342-56.356-166.138-56.356-114.436 0-212.431 70.393-253.045 170.241l-0.657 1.827h-52.224c-18.851 0-34.133 15.282-34.133 34.133s15.282 34.133 34.133 34.133v0h34.133c-1.387 10.557-2.179 22.765-2.179 35.157s0.792 24.601 2.328 36.576l-0.149-1.418h-34.133c-18.851 0-34.133 15.282-34.133 34.133s15.282 34.133 34.133 34.133v0h50.517c41.018 102.213 139.284 173.077 254.101 173.077 63.376 0 121.71-21.591 168.047-57.818l-0.602 0.453c8.054-6.312 13.181-16.040 13.181-26.965 0-18.873-15.3-34.173-34.173-34.173-7.948 0-15.262 2.713-21.066 7.264l0.074-0.056c-33.82 25.616-76.598 41.033-122.978 41.033-76.401 0-143.031-41.836-178.231-103.848l-0.53-1.014z" />
<glyph unicode="&#xe018;" glyph-name="single-euro-line" d="M911.701 185.173c-6.163 6.097-14.643 9.864-24.002 9.864-8.285 0-15.881-2.952-21.793-7.861l0.056 0.045c-59.202-50.694-136.7-81.547-221.404-81.547-150.927 0-278.976 97.956-324.037 233.76l-0.693 2.411h294.571c18.851 0 34.133 15.282 34.133 34.133s-15.282 34.133-34.133 34.133v0h-307.2c-1.037 10.233-1.629 22.114-1.629 34.133s0.592 23.9 1.747 35.616l-0.118-1.482h307.2c18.851 0 34.133 15.282 34.133 34.133s-15.282 34.133-34.133 34.133v0h-294.912c43.896 141.314 173.475 242.153 326.606 242.153 82.747 0 158.617-29.444 217.704-78.427l-0.566 0.456c5.726-4.495 13.035-7.208 20.979-7.208 9.396 0 17.906 3.797 24.078 9.94l-0.001-0.001c6.222 6.184 10.073 14.748 10.073 24.211 0 10.75-4.97 20.34-12.737 26.597l-0.066 0.051c-69.992 58.568-160.977 94.136-260.27 94.136-9.787 0-19.494-0.346-29.108-1.025l1.293 0.073c-165.205-10.923-323.925-148.48-367.957-309.248h-112.981c-18.851 0-34.133-15.282-34.133-34.133s15.282-34.133 34.133-34.133v0h102.4c-0.88-10.222-1.382-22.119-1.382-34.133s0.502-23.911 1.486-35.671l-0.104 1.538h-102.4c-18.851 0-34.133-15.282-34.133-34.133s15.282-34.133 34.133-34.133v0h114.005c48.558-175.947 207.184-303.016 395.49-303.016 100.539 0 192.618 36.223 263.898 96.331l-0.614-0.504c7.082 6.284 11.523 15.409 11.523 25.571 0 8.988-3.474 17.165-9.153 23.261l0.019-0.020z" />
<glyph unicode="&#xe019;" glyph-name="data-shield-line" d="M512 857.6v0c35.353-0.172 69.786-3.643 103.145-10.119l-3.476 0.562c34.558-5.725 64.567-13.080 93.679-22.438l-4.591 1.275c30.469-9.769 55.108-19.373 79.066-30.216l-4.656 1.885 18.432-7.851 62.464-28.672 4.779-2.389h5.12v-190.464c0.173-5.204 0.272-11.32 0.272-17.46 0-103.852-28.246-201.107-77.475-284.502l1.427 2.612c-51.624-79.499-120.615-143.575-201.891-187.984l-2.909-1.456-24.576-12.971-45.739-24.235c-0.716-0.217-1.538-0.341-2.389-0.341s-1.674 0.125-2.45 0.357l0.060-0.016c-0.767-0.222-1.649-0.349-2.56-0.349s-1.793 0.128-2.627 0.366l0.067-0.016-45.397 24.235-24.576 12.971c-84.231 45.662-153.242 109.648-203.492 186.952l-1.308 2.147c-47.813 80.7-76.067 177.873-76.067 281.646 0 6.346 0.106 12.667 0.315 18.961l-0.024-0.917v183.979l20.821 11.264 121.515 54.613 23.211 7.851c24.704 8.158 54.835 15.517 85.717 20.653l3.712 0.51c30.123 5.98 64.799 9.454 100.268 9.557h0.084zM509.952 925.867v0c-39.483-0.218-77.926-4.059-115.195-11.207l3.92 0.626c-38.039-6.303-71.147-14.489-103.232-24.941l4.928 1.389c-33.304-10.571-60.1-20.874-86.188-32.481l5.292 2.103c-24.576-10.923-42.667-19.115-54.613-25.6v0l-28.331-12.288c-28.274-8.6-48.542-34.324-48.81-64.822v-190.836c-0.153-5.176-0.239-11.266-0.239-17.376 0-117.108 31.913-226.763 87.518-320.742l-1.604 2.929c57.321-89.281 134.296-161.231 225.136-211.035l3.216-1.615 71.68-38.229c10.562-5.806 23.106-9.317 36.45-9.556l0.073-0.001c13.301 0.241 25.73 3.753 36.584 9.762l-0.403-0.205 72.021 38.229c94.056 51.42 171.031 123.369 226.875 210.198l1.477 2.453c53.99 91.343 85.889 201.292 85.889 318.692 0 5.801-0.078 11.585-0.233 17.349l0.018-0.851v190.805c-0.166 23.403-12.082 43.987-30.136 56.166l-0.243 0.154c-5.289 3.62-11.418 6.537-17.984 8.423l-0.448 0.11-62.464 28.672c-6.144 2.389-12.288 5.461-19.115 8.533-21.098 9.83-47.993 20.357-75.546 29.437l-5.691 1.624c-27.158 9.063-60.266 17.249-94.208 22.98l-4.096 0.572c-33.027 6.494-71.11 10.334-110.047 10.58l-0.204 0.001z" />
<glyph unicode="&#xe020;" glyph-name="bell-line" d="M512 857.6c0.163 0.001 0.356 0.002 0.548 0.002 37.943 0 69.401-27.762 75.171-64.081l0.057-0.433c105.614-20.095 184.51-111.305 185.343-221.094l0.001-0.090 27.648-251.904h15.36c1.358 0.109 2.941 0.171 4.538 0.171 33.367 0 60.416-27.049 60.416-60.416s-27.049-60.416-60.416-60.416c-1.597 0-3.18 0.062-4.745 0.184l0.208-0.013h-607.232c-1.358-0.109-2.941-0.171-4.538-0.171-33.367 0-60.416 27.049-60.416 60.416s27.049 60.416 60.416 60.416c1.597 0 3.18-0.062 4.745-0.184l-0.208 0.013h15.36l27.307 251.904c1.007 109.924 79.996 201.107 184.268 220.96l1.417 0.224c5.665 36.664 36.953 64.418 74.742 64.512h0.010zM512 925.867c-54.758-0.076-102.431-30.336-127.279-75.032l-0.38-0.744c-116.198-39.453-198.911-146.2-202.062-272.698l-0.007-0.369-20.139-197.291c-50.1-18.244-85.23-65.461-85.23-120.884 0-70.881 57.46-128.341 128.341-128.341 1.284 0 2.564 0.019 3.839 0.056l-0.187-0.004h608.256c1.088-0.033 2.368-0.052 3.652-0.052 70.881 0 128.341 57.46 128.341 128.341 0 55.423-35.131 102.64-84.338 120.599l-0.892 0.285-21.504 196.608c-3.106 126.787-85.672 233.502-199.65 272.45l-2.078 0.617c-25.241 45.883-73.264 76.459-128.429 76.459-0.089 0-0.179 0-0.268 0h0.014zM512-25.429c0.304-0.003 0.664-0.005 1.024-0.005 54.103 0 97.963 43.859 97.963 97.963 0 0.002 0 0.004 0 0.006v0h-197.973c0-0.002 0-0.003 0-0.005 0-54.103 43.859-97.963 97.963-97.963 0.36 0 0.72 0.002 1.079 0.006h-0.055z" />
<glyph unicode="&#xe021;" glyph-name="geolocation-line" d="M512 960c-0.812 0.007-1.771 0.011-2.731 0.011-184.318 0-333.783-149.228-334.165-333.457v-0.036c0-183.637 336.896-690.517 336.896-690.517s336.555 506.539 336.555 690.176c-0.385 184.452-150.001 333.83-334.506 333.83-0.72 0-1.44-0.002-2.16-0.007l0.111 0.001zM243.371 626.517c0 148.171 120.117 268.288 268.288 268.288s268.288-120.117 268.288-268.288v0c0-102.4-147.115-370.347-268.288-563.883-121.173 193.536-268.288 462.165-268.288 563.883zM512 805.376c-97.599-1.538-176.128-81.017-176.128-178.838 0-98.781 80.078-178.859 178.859-178.859 98.774 0 178.847 80.066 178.859 178.837v0.001c-0.771 98.948-81.162 178.864-180.219 178.864-0.482 0-0.963-0.002-1.444-0.006h0.074zM512 516.267c-59.892 1.526-107.861 50.44-107.861 110.558 0 61.078 49.514 110.592 110.592 110.592 61.066 0 110.573-49.495 110.592-110.557v-0.002c-0.766-61.246-50.594-110.6-111.949-110.6-0.483 0-0.965 0.003-1.447 0.009l0.073-0.001z" />
<glyph unicode="&#xe022;" glyph-name="calendar-full" d="M921.6 815.957h-115.371v53.931c-2.351 29.344-26.744 52.267-56.491 52.267s-54.139-22.922-56.478-52.067l-0.013-0.2v-53.931h-362.155v53.931c-2.351 29.344-26.744 52.267-56.491 52.267s-54.139-22.922-56.478-52.067l-0.013-0.2v-53.931h-115.712c-37.703 0-68.267-30.564-68.267-68.267v0-709.291c0-37.703 30.564-68.267 68.267-68.267v0h819.2c37.703 0 68.267 30.564 68.267 68.267v0 709.291c0 37.703-30.564 68.267-68.267 68.267v0zM921.6 565.419h-819.2v114.005c0 37.703 30.564 68.267 68.267 68.267v0h682.667c37.703 0 68.267-30.564 68.267-68.267v0z" />
<glyph unicode="&#xe023;" glyph-name="voyeur-line" d="M512 891.733c127.545-0.194 230.889-103.537 231.083-231.064v-0.019c-0.307-75.564-37.214-142.444-93.902-183.869l-0.647-0.451-31.744-23.893 6.144-38.571 51.883-409.6h-316.075l50.859 401.408 5.803 42.325-34.133 23.552c-60.14 42.307-98.953 111.411-98.953 189.581 0 111.423 78.86 204.427 183.812 226.244l1.499 0.261c13.337 2.596 28.678 4.086 44.365 4.096h0.008zM512 960c-20.057-0.045-39.649-1.906-58.658-5.427l1.996 0.307c-139.826-27.017-243.986-148.437-243.986-294.185 0-102.030 51.045-192.137 128.99-246.179l0.99-0.65-50.176-399.701c-0.46-2.976-0.722-6.408-0.722-9.902 0-37.703 30.564-68.267 68.267-68.267 0.254 0 0.507 0.001 0.761 0.004h315.012c0.23-0.003 0.501-0.004 0.773-0.004 37.703 0 68.267 30.564 68.267 68.267 0 3.616-0.281 7.165-0.823 10.629l0.050-0.385-52.224 407.211c73.794 54.945 121.076 141.931 121.076 239.96 0 164.761-133.565 298.325-298.325 298.325-0.446 0-0.892-0.001-1.337-0.003h0.069z" />
<glyph unicode="&#xe024;" glyph-name="eyes-full" d="M674.475 446.976c0-89.167-72.284-161.451-161.451-161.451s-161.451 72.284-161.451 161.451c0 89.167 72.284 161.451 161.451 161.451s161.451-72.284 161.451-161.451zM0 448s474.112-761.173 1024 0c-549.888 761.173-1024 0-1024 0zM512 217.259c-126.427 0.583-228.691 103.207-228.691 229.715 0 126.869 102.848 229.717 229.717 229.717 126.509 0 229.132-102.264 229.715-228.635v-0.056c0.001-0.305 0.002-0.665 0.002-1.026 0-126.869-102.848-229.717-229.717-229.717-0.361 0-0.722 0.001-1.082 0.002h0.056z" />
<glyph unicode="&#xe025;" glyph-name="user-round-full" d="M512 960c-282.77 0-512-229.23-512-512s229.23-512 512-512c282.77 0 512 229.23 512 512v0c0 282.77-229.23 512-512 512v0zM512 789.333c82.946 0 150.186-67.241 150.186-150.187s-67.241-150.187-150.187-150.187c-82.946 0-150.187 67.241-150.187 150.187 0 0.12 0 0.24 0 0.36v-0.019c0.194 82.799 67.36 149.845 150.186 149.845 0 0 0 0 0 0v0zM789.845 202.24h-559.104v59.392c0 88.224 71.52 159.744 159.744 159.744v0h238.933c0.101 0 0.222 0 0.342 0 88.036 0 159.403-71.367 159.403-159.403 0-0.12 0-0.24 0-0.36v0.019z" />
<glyph unicode="&#xe026;" glyph-name="user-round-line" d="M512 960c-282.77 0-512-229.23-512-512s229.23-512 512-512c282.77 0 512 229.23 512 512v0c0 282.77-229.23 512-512 512v0zM512 4.267c-245.067 0-443.733 198.666-443.733 443.733s198.666 443.733 443.733 443.733c245.067 0 443.733-198.666 443.733-443.733v0c0-245.067-198.666-443.733-443.733-443.733v0zM563.75 740.107c69.143-28.64 101.977-107.909 73.337-177.051s-107.909-101.977-177.051-73.337c-69.143 28.64-101.977 107.909-73.337 177.051s107.909 101.977 177.051 73.337zM622.933 411.136h-216.747c-79.741 0-144.384-64.643-144.384-144.384v0-53.589h505.515v53.589c0 79.741-64.643 144.384-144.384 144.384v0z" />
<glyph unicode="&#xe029;" glyph-name="female-full" d="M512 749.739c-80.684 0-146.091-65.407-146.091-146.091s65.407-146.091 146.091-146.091c80.684 0 146.091 65.407 146.091 146.091v0c0 80.684-65.407 146.091-146.091 146.091v0zM512 960c-282.77 0-512-229.23-512-512s229.23-512 512-512c282.77 0 512 229.23 512 512v0c0 282.77-229.23 512-512 512v0zM546.133 392.021v-124.245h61.099c18.851 0 34.133-15.282 34.133-34.133s-15.282-34.133-34.133-34.133v0h-61.099v-87.040c0-18.851-15.282-34.133-34.133-34.133s-34.133 15.282-34.133 34.133v0 87.040h-63.147c-18.851 0-34.133 15.282-34.133 34.133s15.282 34.133 34.133 34.133v0h63.147v124.245c-102.799 17.038-180.224 105.288-180.224 211.622 0 118.386 95.971 214.357 214.357 214.357s214.357-95.971 214.357-214.357c0-106.334-77.425-194.584-178.974-211.451l-1.25-0.171z" />
<glyph unicode="&#xe030;" glyph-name="male-full" d="M657.408 293.376c0-80.307-65.101-145.408-145.408-145.408s-145.408 65.101-145.408 145.408c0 80.307 65.101 145.408 145.408 145.408s145.408-65.101 145.408-145.408zM512 960c-282.77 0-512-229.23-512-512s229.23-512 512-512c282.77 0 512 229.23 512 512v0c0 282.77-229.23 512-512 512v0zM512 80.043c-0.717-0.009-1.563-0.014-2.41-0.014-117.632 0-212.992 95.36-212.992 212.992 0 106.437 78.072 194.639 180.074 210.464l1.194 0.153v195.925l-51.541-51.883c-6.167-6.118-14.661-9.899-24.037-9.899-0.069 0-0.139 0-0.208 0.001h0.011c-9.534 0.079-18.176 3.834-24.592 9.914l0.016-0.015c-6.236 6.187-10.097 14.76-10.097 24.235s3.86 18.048 10.094 24.232l0.002 0.002 109.568 109.909c6.419 6.128 15.134 9.899 24.73 9.899 0.066 0 0.132 0 0.197-0.001h4.769c7.741-0.879 14.57-4.228 19.811-9.229l109.896-109.896c6.236-6.187 10.097-14.76 10.097-24.235s-3.86-18.048-10.094-24.232l-0.002-0.002c-6.187-6.236-14.76-10.097-24.235-10.097s-18.048 3.86-24.232 10.094l-0.002 0.002-51.883 50.859v-195.584c103.197-15.977 181.269-104.18 181.269-210.616 0-117.632-95.36-212.992-212.992-212.992-0.847 0-1.694 0.005-2.539 0.015l0.129-0.001z" />
<glyph unicode="&#xe031;" glyph-name="hetero-full" d="M448.512 590.336h-1.707l-8.533-7.509c-20.479-20.296-33.158-48.433-33.158-79.531s12.679-59.235 33.15-79.523l0.008-0.008 6.144-5.461h2.389c26.651 20.406 43.667 52.238 43.667 88.043 0 35.046-16.302 66.285-41.736 86.547l-0.224 0.173zM517.803 614.912c-6.826-0.098-13.43-0.715-19.871-1.813l0.757 0.107c26.259-28.664 42.35-67.020 42.35-109.134 0-43.519-17.182-83.024-45.132-112.103l0.051 0.053c6.508-1.519 13.98-2.39 21.656-2.39 0.067 0 0.133 0 0.2 0h-0.010c62.209 0 112.64 50.431 112.64 112.64s-50.431 112.64-112.64 112.64v0zM377.515 390.997c6.924 0.066 13.636 0.808 20.122 2.164l-0.666-0.116c-26.24 28.8-42.309 67.266-42.309 109.486 0 43.279 16.886 82.615 44.43 111.776l-0.073-0.078c-6.429 1.302-13.818 2.048-21.381 2.048-62.209 0-112.64-50.431-112.64-112.64 0-62.166 50.361-112.57 112.511-112.64h0.007zM512 960c-282.77 0-512-229.23-512-512s229.23-512 512-512c282.77 0 512 229.23 512 512v0c0 282.77-229.23 512-512 512v0zM785.067 622.763c-0.001 0-0.001 0-0.002 0-14.207 0-25.747 11.421-25.939 25.582v58.386l-110.592-108.203c19.692-26.602 31.52-60.061 31.52-96.283 0-45.068-18.311-85.859-47.899-115.339l-0.005-0.005c-29.455-29.725-70.291-48.128-115.425-48.128-0.101 0-0.202 0-0.303 0h0.016c-26.26 0.011-51.045 6.316-72.932 17.488l0.91-0.422c-12.349-5.997-26.679-10.633-41.72-13.18l-0.947-0.132v-96.939h48.811c13.95 0 25.259-11.309 25.259-25.259v0c0-0.001 0-0.001 0-0.002 0-14.018-11.268-25.405-25.241-25.598h-47.463v-68.267c-0.193-13.991-11.579-25.259-25.598-25.259-0.001 0-0.002 0-0.002 0v0c-13.95 0-25.259 11.309-25.259 25.259v0 68.267h-49.152c-13.991 0.193-25.259 11.579-25.259 25.598 0 0.001 0 0.002 0 0.002v0c0 13.95 11.309 25.259 25.259 25.259v0h49.152v96.939c-79.448 11.873-139.688 79.632-139.688 161.46 0 90.109 73.048 163.157 163.157 163.157 0.629 0 1.257-0.004 1.885-0.011l-0.096 0.001c26.109-0.059 50.763-6.229 72.626-17.153l-0.946 0.428c20.222 9.638 43.947 15.267 68.987 15.267 36.169 0 69.596-11.745 96.673-31.629l-0.455 0.319 108.203 108.203h-58.027c-7.12 0.062-13.528 3.060-18.081 7.84l-0.010 0.010c-4.626 4.632-7.487 11.027-7.487 18.091 0 14.131 11.449 25.587 25.576 25.6h120.492c0.081 0.001 0.176 0.001 0.272 0.001 6.644 0 12.68-2.6 17.147-6.839l-0.011 0.010v-2.048c3.278-4.328 5.306-9.764 5.461-15.665l0.001-0.036v-119.467c0.029-0.461 0.046-1 0.046-1.542 0-13.261-9.95-24.197-22.791-25.752l-0.124-0.012z" />
<glyph unicode="&#xe032;" glyph-name="transgender-full" d="M512 960c-282.77 0-512-229.23-512-512s229.23-512 512-512c282.77 0 512 229.23 512 512v0c0 282.77-229.23 512-512 512v0zM716.8 629.589c-4.665-4.844-11.206-7.853-18.45-7.853-0.114 0-0.227 0.001-0.341 0.002h0.017c-14.439 0.19-26.093 11.844-26.282 26.265v56.338l-102.4-102.4c19.2-26.273 30.72-59.217 30.72-94.852 0-0.134 0-0.267 0-0.4v0.020c-0.436-81.361-59.616-148.77-137.264-161.996l-0.976-0.137v-95.232h46.763c0.897 0.109 1.937 0.171 2.99 0.171 14.516 0 26.283-11.767 26.283-26.283s-11.767-26.283-26.283-26.283c-1.054 0-2.093 0.062-3.114 0.183l0.124-0.012h-49.152v-68.267c0-0.001 0-0.001 0-0.002 0-14.396-11.573-26.088-25.923-26.28h-0.018c-14.439 0.19-26.093 11.844-26.282 26.265v68.285h-48.128c-0.897-0.109-1.937-0.171-2.99-0.171-14.516 0-26.283 11.767-26.283 26.283s11.767 26.283 26.283 26.283c1.054 0 2.093-0.062 3.114-0.183l-0.124 0.012h48.128v94.549c-78.879 12.923-138.334 80.585-138.334 162.134 0 90.675 73.506 164.181 164.181 164.181 0.153 0 0.306 0 0.459-0.001h-0.024c0.069 0 0.152 0 0.234 0 36.281 0 69.779-11.917 96.793-32.050l-0.429 0.306 102.4 102.4h-55.979c-14.481 0.377-26.098 12.114-26.282 26.606v0.018c0 0.001 0 0.001 0 0.002 0 14.516 11.767 26.283 26.283 26.283 0.12 0 0.24-0.001 0.36-0.002h119.449c0.102 0.001 0.222 0.002 0.342 0.002 6.73 0 12.854-2.597 17.423-6.844l-0.016 0.015c3.278-4.328 5.306-9.764 5.461-15.665l0.001-0.036v-123.221c0.425-1.735 0.669-3.727 0.669-5.775 0-4.661-1.263-9.027-3.464-12.775l0.064 0.119zM433.493 618.667c-61.537-0.388-111.273-50.364-111.273-111.955 0-61.832 50.125-111.957 111.957-111.957 61.592 0 111.567 49.735 111.955 111.235v0.037c0.001 0.203 0.002 0.444 0.002 0.685 0 61.832-50.125 111.957-111.957 111.957-0.241 0-0.481-0.001-0.722-0.002h0.037z" />
<glyph unicode="&#xe033;" glyph-name="like-line" d="M785.067 80.725h-7.168c-43.008 3.413-86.016 10.581-130.048 18.432h-2.731c-57.047 7.651-108.443 20.435-157.464 38.176l5.23-1.654-54.955 20.48-29.355 320.171 71.68 47.787c21.88 14.832 40.981 30.898 58.281 48.721l0.087 0.090 26.283 26.283c48.708 51.211 78.796 120.529 79.189 196.871v11.001c3.838 2.367 8.488 3.769 13.467 3.769 0.306 0 0.61-0.005 0.913-0.016l-0.044 0.001c0.168 0.003 0.365 0.005 0.563 0.005 3.971 0 7.767-0.754 11.251-2.125l-0.208 0.072c11.565-6.121 19.978-16.885 22.815-29.743l0.055-0.294c3.11-9.849 4.903-21.175 4.903-32.921 0-19.57-4.976-37.978-13.731-54.028l0.295 0.591-24.235-41.301c-8.035-12.742-12.803-28.244-12.803-44.859 0-14.696 3.73-28.52 10.294-40.579l-0.222 0.446c14.044-29.398 43.376-49.432 77.43-49.834h181.984c0.501 0.235 1.088 0.372 1.707 0.372s1.206-0.137 1.732-0.383l-0.025 0.011c0.174-0.349 0.275-0.76 0.275-1.195s-0.102-0.846-0.282-1.211l0.007 0.016c-1.69-125.017-27.755-243.496-73.639-351.525l2.3 6.095-7.851-19.115c-7.24-24.382-18.961-45.487-34.324-63.374l0.191 0.227c-6.041-3.081-13.175-4.886-20.732-4.886-1.113 0-2.216 0.039-3.309 0.116l0.147-0.008zM783.019 13.141c1.288-0.055 2.799-0.086 4.318-0.086 22.155 0 42.755 6.659 59.908 18.084l-0.396-0.248c34.133 24.917 49.835 74.752 65.195 110.933 46.809 109.427 75.166 236.565 77.808 370.009l0.016 1.021c-0.767 39.75-33.171 71.68-73.033 71.68-0.004 0-0.009 0-0.013 0h-181.93c-9.817 0.225-17.689 8.236-17.689 18.086 0 3.263 0.864 6.324 2.376 8.968l-0.047-0.089 24.917 41.301c40.277 63.147 34.133 183.979-46.080 216.405-11.549 5.177-25.031 8.193-39.218 8.193-0.132 0-0.265 0-0.397-0.001h0.021c-0.877 0.032-1.907 0.050-2.941 0.050-29.079 0-54.774-14.487-70.262-36.638l-0.183-0.277c-5.787-9.789-9.304-21.525-9.556-34.061l-0.001-0.072v-10.24c-0.751-58.063-24.039-110.544-61.496-149.221l0.056 0.058-24.917-24.917c-14.331-14.617-29.955-27.857-46.722-39.573l-1.065-0.705-86.357-57.344c-10.675-6.977-17.63-18.872-17.63-32.391 0-1.455 0.081-2.892 0.238-4.306l-0.016 0.174 34.133-356.352c1.647-14.866 11.383-27.109 24.651-32.334l0.266-0.092 72.704-26.965c48.105-17.766 104.473-31.755 162.815-39.492l4.097-0.444c44.032-7.851 90.112-15.36 136.533-19.456zM58.368 140.8c3.346-39.818 36.49-70.868 76.886-70.868 2.012 0 4.006 0.077 5.979 0.228l-0.262-0.016 152.576 12.288-36.523 409.6-152.235-12.288c-39.856-3.305-70.95-36.468-70.95-76.893 0-2.371 0.107-4.716 0.316-7.033l-0.022 0.299zM194.901 418.645l25.6-273.067-93.525-8.875-25.6 273.067z" />
<glyph unicode="&#xe034;" glyph-name="unlike-line" d="M238.933 810.837h6.827c43.349-3.755 86.357-10.923 130.389-18.432h2.389c57.418-7.773 109.146-20.792 158.435-38.866l-5.177 1.661 55.296-20.139 29.355-321.195-70.315-47.104c-21.847-14.916-40.941-30.975-58.297-48.738l-0.071-0.072-25.941-25.941c-48.948-51.039-79.356-120.191-80.212-196.44l-0.001-0.168v-10.581c-3.688-2.581-8.267-4.123-13.207-4.123-0.397 0-0.792 0.010-1.185 0.030l0.055-0.002c-4.32 0.080-8.414 0.95-12.176 2.471l0.229-0.082c-11.669 6.152-20.121 17.070-22.82 30.093l-0.049 0.285c-3.189 9.967-5.027 21.432-5.027 33.326 0 19.408 4.894 37.674 13.515 53.63l-0.296-0.599 24.235 40.96c8.035 12.742 12.803 28.244 12.803 44.859 0 14.696-3.73 28.52-10.294 40.579l0.222-0.446c-14.748 27.416-43.236 45.739-76.003 45.739-0.040 0-0.080 0-0.12 0h-184.314c-2.41 0.27-4.331 2.075-4.773 4.403l-0.005 0.034c-0.316 0.539-0.503 1.186-0.503 1.877s0.187 1.339 0.513 1.895l-0.010-0.018c1.842 124.563 27.893 242.551 73.637 350.149l-2.298-6.085c2.389 6.144 5.12 12.629 7.509 19.115 7.331 24.48 19.040 45.683 34.344 63.743l-0.21-0.255c5.957 2.869 12.953 4.545 20.341 4.545 1.13 0 2.251-0.039 3.361-0.116l-0.15 0.008zM238.933 879.104c-1.418 0.066-3.080 0.103-4.751 0.103-22.081 0-42.636-6.532-59.839-17.768l0.42 0.257c-34.133-24.917-49.835-74.752-65.195-111.275-46.25-109.473-73.822-236.643-75.429-370.061l-0.006-0.627c0.194-40.195 32.823-72.704 73.045-72.704 0 0 0.001 0 0.001 0h181.931c9.798-0.006 17.738-7.951 17.738-17.749 0-3.268-0.883-6.329-2.423-8.958l0.045 0.084-24.917-41.984c-40.619-63.488-32.768-185.003 45.739-217.771 11.778-5.153 25.502-8.163 39.925-8.192h0.011c0.861-0.031 1.872-0.049 2.887-0.049 29.171 0 54.923 14.637 70.313 36.967l0.187 0.287c5.787 9.789 9.304 21.525 9.556 34.061l0.001 0.072v11.264c0.919 57.709 24.181 109.813 61.489 148.189l-0.049-0.051 24.917 24.917c14.401 15.866 30.037 30.094 46.929 42.735l0.858 0.614 86.357 57.344c10.516 6.772 17.381 18.42 17.381 31.672 0 1.71-0.114 3.394-0.336 5.043l0.021-0.193-32.427 354.645c-1.408 15.408-11.161 28.238-24.651 34.032l-0.266 0.102-72.704 26.624c-48.037 17.772-104.382 31.869-162.686 39.807l-4.226 0.471c-44.032 7.509-90.112 15.36-136.533 19.115zM965.291 751.104c-3.147 39.621-36.074 70.581-76.232 70.581-2.242 0-4.462-0.097-6.656-0.286l0.285 0.020-152.235-11.947 36.181-409.6 152.576 13.995c39.74 3.016 70.842 36.002 70.842 76.252 0 1.874-0.067 3.733-0.2 5.573l0.014-0.247zM828.757 472.917l-25.6 273.067 94.549 9.216 25.6-273.067z" />
<glyph unicode="&#xe035;" glyph-name="sad-full" d="M512 960c-282.77 0-512-229.23-512-512s229.23-512 512-512c282.77 0 512 229.23 512 512v0c0 282.77-229.23 512-512 512v0zM324.267 706.048c0.101 0 0.221 0.001 0.341 0.001 47.317 0 85.675-38.358 85.675-85.675s-38.358-85.675-85.675-85.675c-47.317 0-85.675 38.358-85.675 85.675 0 0.12 0 0.239 0.001 0.359v-0.018c0 47.128 38.205 85.333 85.333 85.333v0zM768 224.085v0c-6.308-7.816-15.887-12.773-26.624-12.773s-20.316 4.958-26.573 12.708l-0.051 0.065c-49.629 54.396-120.817 88.394-199.946 88.394-81.376 0-154.355-35.956-203.915-92.847l-0.277-0.325c-6.595-7.4-16.153-12.038-26.795-12.038s-20.199 4.638-26.763 12.002l-0.031 0.036c-5.802 6.439-9.351 15.008-9.351 24.405s3.549 17.966 9.38 24.438l-0.029-0.033c63.377 71.959 155.717 117.12 258.605 117.12 100.146 0 190.298-42.786 253.175-111.075l0.22-0.242c5.982-6.484 9.651-15.181 9.651-24.734 0-9.73-3.805-18.571-10.007-25.117l0.016 0.017zM699.733 535.381c-0.101 0-0.221-0.001-0.341-0.001-47.317 0-85.675 38.358-85.675 85.675s38.358 85.675 85.675 85.675c47.317 0 85.674-38.357 85.675-85.674v0c0 0 0 0 0-0.001 0-47.197-38.163-85.48-85.315-85.674h-0.019z" />
<glyph unicode="&#xe036;" glyph-name="sad-line" d="M512 960c-282.77 0-512-229.23-512-512s229.23-512 512-512c282.77 0 512 229.23 512 512v0c0 282.77-229.23 512-512 512v0zM512 4.267c-245.067 0-443.733 198.666-443.733 443.733s198.666 443.733 443.733 443.733c245.067 0 443.733-198.666 443.733-443.733v0c0-245.067-198.666-443.733-443.733-443.733v0zM324.267 535.040c0.101 0 0.221-0.001 0.341-0.001 47.317 0 85.675 38.358 85.675 85.675s-38.358 85.675-85.675 85.675c-47.317 0-85.674-38.357-85.675-85.674v0c0 0 0 0 0-0.001 0-47.197 38.163-85.48 85.315-85.674h0.019zM699.733 535.381c0.101 0 0.221-0.001 0.341-0.001 47.317 0 85.675 38.358 85.675 85.675s-38.358 85.675-85.675 85.675c-47.317 0-85.674-38.357-85.675-85.674v0c0-0.101-0.001-0.221-0.001-0.341 0-47.128 38.205-85.333 85.333-85.333 0 0 0 0 0.001 0v0zM768.683 224.085c5.895 6.463 9.506 15.098 9.506 24.576s-3.611 18.113-9.531 24.605l0.026-0.029c-63.097 68.532-153.249 111.317-253.395 111.317-102.888 0-195.227-45.161-258.278-116.742l-0.327-0.379c-5.802-6.439-9.351-15.008-9.351-24.405s3.549-17.966 9.38-24.438l-0.029 0.033c6.595-7.4 16.153-12.038 26.795-12.038s20.199 4.638 26.763 12.002l0.031 0.036c49.886 58.218 123.491 94.875 205.658 94.875 79.613 0 151.188-34.414 200.66-89.178l0.21-0.236c6.308-7.816 15.887-12.773 26.624-12.773s20.316 4.958 26.573 12.708l0.051 0.065z" />
<glyph unicode="&#xe037;" glyph-name="smile-line" d="M512 960c-282.77 0-512-229.23-512-512s229.23-512 512-512c282.77 0 512 229.23 512 512v0c0 282.77-229.23 512-512 512v0zM512 4.267c-245.067 0-443.733 198.666-443.733 443.733s198.666 443.733 443.733 443.733c245.067 0 443.733-198.666 443.733-443.733v0c0-245.067-198.666-443.733-443.733-443.733v0zM324.267 535.040c0.101 0 0.221-0.001 0.341-0.001 47.317 0 85.675 38.358 85.675 85.675s-38.358 85.675-85.675 85.675c-47.317 0-85.674-38.357-85.675-85.674v0c0 0 0 0 0-0.001 0-47.197 38.163-85.48 85.315-85.674h0.019zM699.733 535.381c0.101 0 0.221-0.001 0.341-0.001 47.317 0 85.675 38.358 85.675 85.675s-38.358 85.675-85.675 85.675c-47.317 0-85.674-38.357-85.675-85.674v0c0-0.101-0.001-0.221-0.001-0.341 0-47.128 38.205-85.333 85.333-85.333 0 0 0 0 0.001 0v0zM805.888 379.733v0c-0.566 0.033-1.228 0.053-1.894 0.053-14.835 0-27.459-9.464-32.165-22.683l-0.074-0.239c-38.55-107.094-139.262-182.289-257.536-182.289s-218.986 75.195-256.936 180.386l-0.6 1.903c-4.78 13.458-17.405 22.922-32.24 22.922-0.666 0-1.328-0.019-1.985-0.057l0.091 0.004c-0.736 0.056-1.593 0.089-2.458 0.089-18.851 0-34.133-15.282-34.133-34.133 0-4.582 0.903-8.953 2.54-12.945l-0.083 0.227c48.377-135.526 175.625-230.774 325.12-230.774s276.743 95.248 324.369 228.37l0.751 2.405c1.537 3.745 2.429 8.091 2.429 12.646 0 18.851-15.282 34.133-34.133 34.133-0.374 0-0.747-0.006-1.118-0.018l0.054 0.001z" />
<glyph unicode="&#xe038;" glyph-name="star-round-line" d="M1014.443 550.4c-49.318 235.803-255.494 410.371-502.443 410.371-283.196 0-512.771-229.576-512.771-512.771 0-36.247 3.761-71.616 10.914-105.737l-0.585 3.337c49.318-235.803 255.494-410.371 502.443-410.371 283.196 0 512.771 229.576 512.771 512.771 0 36.247-3.761 71.616-10.914 105.737l0.585-3.337zM926.379 607.061c-2.273 1.078-4.911 1.911-7.676 2.366l-0.174 0.024-260.779 37.547-117.419 238.933c-1.553 2.155-3.12 4.047-4.804 5.829l0.025-0.027c178.782-10.058 328.478-124.528 389.796-283.007l1.031-3.030zM682.667 353.792l32.427-194.219-204.8 107.52-203.093-107.179 34.133 193.536 5.803 34.133-27.989 26.283-140.288 136.533 190.805 26.624 34.133 5.12 16.043 32.085 88.064 177.152 87.381-176.811 15.701-32.427 34.133-5.12 193.195-27.648-139.605-136.533-25.259-24.917zM424.277 883.541c17.158 3.918 37.492 6.835 58.265 8.136l1.127 0.056c-1.931-1.994-3.627-4.233-5.032-6.662l-0.088-0.164-118.443-238.933-257.707-36.523h-3.755c55.024 139.972 175.546 243.45 322.786 273.604l2.846 0.487zM76.459 535.723c0 5.803 2.389 11.264 3.755 17.067v-2.048l192.853-185.685-45.739-258.389c-97.895 81.963-159.709 204.225-159.709 340.925 0 31.194 3.219 61.636 9.342 91.012l-0.502-2.881zM281.259 69.461l229.717 120.491 233.131-122.197c-41.098-25.475-89.056-44.692-140.276-54.843l-2.743-0.453c-26.602-5.667-57.166-8.912-88.487-8.912-86.127 0-166.523 24.538-234.579 67.004l1.872-1.089zM948.907 360.277c-20.775-104.462-76.315-193.417-153.817-256.389l-0.807-0.635-43.349 261.803 186.709 185.344c1.732 1.663 3.208 3.574 4.375 5.68l0.062 0.122c8.801-33.021 13.856-70.931 13.856-110.021 0-30.395-3.056-60.077-8.878-88.754l0.483 2.85z" />
<glyph unicode="&#xe039;" glyph-name="person-vip-line" d="M986.112 682.496c-32.901-0.75-62.077-16.073-81.425-39.743l-0.153-0.193c-4.156-6.088-7.933-13.050-10.98-20.391l-0.284-0.771c-7.231 2.167-15.54 3.414-24.14 3.414-0.153 0-0.307 0-0.46-0.001h0.024c-57.685 0-104.448-56.32-104.448-125.269-0.001-0.216-0.002-0.471-0.002-0.727 0-29.488 8.925-56.892 24.22-79.658l-0.325 0.513v-2.048c2.841-4.347 4.598-9.631 4.777-15.313l0.001-0.047c0-22.869-34.133-48.128-80.555-48.128s-80.213 25.259-80.213 48.128c0.252 5.767 2.13 11.051 5.184 15.457l-0.064-0.097c16.643 19.142 32.488 40.196 46.806 62.33l1.322 2.182c2.357 7.971 3.726 17.132 3.755 26.608v14.693c0 0.016 0 0.035 0 0.054 0 44.319-28.155 82.062-67.554 96.318l-0.713 0.225c3.347 12.125 5.886 26.43 7.109 41.109l0.059 0.875c0.015 0.781 0.024 1.702 0.024 2.625 0 35.767-12.914 68.518-34.333 93.845l0.176-0.214c-19.603 20.863-47.371 33.857-78.175 33.857-1.317 0-2.629-0.024-3.934-0.071l0.189 0.005c-1.665 0.097-3.612 0.152-5.571 0.152-28.712 0-54.663-11.817-73.257-30.852l-0.019-0.020c-22.73-26.084-36.588-60.417-36.588-97.987 0-1.552 0.024-3.098 0.071-4.639l-0.005 0.226c0.465-14.273 2.553-27.849 6.089-40.829l-0.287 1.235c-38.485-15.308-65.195-52.236-65.195-95.402 0-0.060 0-0.121 0-0.181v0.009-14.677c0.045-34.228 16.877-64.515 42.703-83.077l0.305-0.209 3.755-3.413c7.477-5.189 12.732-13.129 14.307-22.326l0.029-0.202c0-20.821-36.181-44.032-84.309-44.032-0.087 0-0.19 0-0.293 0-13.758 0-27.051 1.995-39.604 5.712l0.985-0.25c-7.643 1.99-14.344 4.795-20.521 8.398l0.383-0.206c-16.043 8.875-25.6 20.139-25.6 30.379 0.252 3.838 1.491 7.342 3.462 10.319l-0.049-0.079c18.31 23.39 29.362 53.23 29.362 85.65 0 0.489-0.003 0.977-0.008 1.464l0.001-0.074c0 68.267-46.763 125.269-104.448 125.269-10.272-0.033-20.126-1.781-29.305-4.97l0.633 0.191c-7.321 18.081-19.041 33.093-33.866 44.182l-0.268 0.192c-13.939 10.99-31.756 17.628-51.123 17.628-3.395 0-6.743-0.204-10.031-0.6l0.396 0.039-27.648-4.437 76.459-443.733c6.342-36.711 32.902-65.895 67.592-75.95l0.675-0.168c107.332-30.598 230.603-48.191 357.984-48.191 4.587 0 9.169 0.023 13.746 0.068l-0.7-0.005c7.549-0.181 16.441-0.284 25.358-0.284 117.981 0 231.741 18.073 338.662 51.602l-8.009-2.165c33.079 11.414 57.551 39.635 63.409 74.191l0.079 0.561 77.483 452.267zM588.117 571.904c25.491-0.193 46.081-20.902 46.081-46.42 0-0.12 0-0.241-0.001-0.361v0.018-14.677c0-0.016 0-0.036 0-0.055 0-12.409-5.094-23.629-13.305-31.682l-0.007-0.007-34.133-43.349c-4.741-9.98-7.509-21.686-7.509-34.038 0-0.034 0-0.067 0-0.101v0.005c0-58.027 59.392-102.4 136.533-102.4s136.533 45.397 136.533 102.4c-0.024 15.116-4.208 29.25-11.467 41.324l0.203-0.364-3.413 6.144c-11.244 13.9-18.147 31.717-18.431 51.137l-0.001 0.063c0 37.888 22.869 69.973 49.835 69.973 0.201 0.004 0.437 0.006 0.674 0.006 6.117 0 11.879-1.518 16.93-4.197l-0.196 0.095c4.365-1.499 9.394-2.364 14.625-2.364 16.943 0 31.765 9.077 39.871 22.632l0.117 0.212c3.072 5.12 4.096 15.019 8.533 24.917l2.389 2.731-15.701-92.501-48.811-280.917c-2.499-14.824-12.738-26.766-26.341-31.655l-0.283-0.089c-93.85-29.639-201.78-46.717-313.698-46.717-8.878 0-17.73 0.107-26.556 0.321l1.31-0.025c-5.539-0.086-12.077-0.135-18.625-0.135-119.897 0-235.97 16.371-346.106 47l9.062-2.151c-15.289 4.21-26.838 16.671-29.658 32.176l-0.038 0.25-62.805 372.053c5.644-10.618 10.23-22.927 13.126-35.874l0.186-0.99c3.755-11.605 15.701-26.283 45.397-16.384 7.851 2.731 15.019 11.605 26.965 11.605 26.965 0 49.835-32.085 49.835-69.973 0.010-0.474 0.016-1.033 0.016-1.594 0-20.275-7.365-38.829-19.567-53.134l0.095 0.114-5.12-8.533v-3.755c-4.656-9.151-7.42-19.944-7.509-31.374v-0.029c1.975-34.878 23.137-64.379 53.023-78.27l0.566-0.236c9.83-5.864 21.213-10.56 33.289-13.481l0.844-0.172c15.555-4.551 33.425-7.169 51.906-7.169 0.232 0 0.464 0 0.695 0.001h-0.036c77.824 0 138.923 43.691 138.923 99.328-0.747 25.426-12.779 47.899-31.238 62.678l-0.165 0.128-7.509 6.827c-13.385 8.141-22.188 22.647-22.188 39.21 0 0.135 0.001 0.271 0.002 0.406v-0.021 14.677c-0.001 0.102-0.001 0.222-0.001 0.343 0 25.518 20.59 46.227 46.063 46.42h0.018c18.432 0 25.941 16.725 27.307 30.037 0.089 0.866 0.139 1.871 0.139 2.888 0 4.654-1.059 9.061-2.948 12.993l0.078-0.18c-6.068 12.871-10.099 27.846-11.24 43.622l-0.024 0.41c-0.028 0.867-0.044 1.886-0.044 2.909 0 21.247 6.933 40.874 18.66 56.744l-0.184-0.261c9.491 9.706 22.718 15.725 37.352 15.725 0.549 0 1.095-0.008 1.64-0.025l-0.080 0.002c0.947 0.059 2.054 0.093 3.168 0.093 14.892 0 28.374-6.036 38.133-15.794v0c12.048-15.313 19.532-34.717 20.136-55.843l0.003-0.135c-3.416-19.142-8.388-36.098-14.954-52.234l0.618 1.717c-2.059-3.909-3.267-8.543-3.267-13.458 0-16.212 13.143-29.355 29.355-29.355 1.030 0 2.048 0.053 3.051 0.157l-0.126-0.011z" />
<glyph unicode="&#xe041;" glyph-name="chat-flat-line" d="M845.141 857.6c30.461-0.192 55.104-24.834 55.296-55.278v-509.629c-0.192-30.461-24.834-55.104-55.278-55.296h-401.426l-152.576-123.563v123.221h-110.592c-30.392 0.194-54.955 24.876-54.955 55.295 0 0 0 0.001 0 0.001v0 509.952c0 0 0 0.001 0 0.001 0 30.419 24.563 55.101 54.936 55.295h664.594zM845.141 925.867h-664.576c-68.095-0.194-123.221-55.44-123.221-123.562 0 0 0 0 0 0v0-509.611c0 0 0 0 0 0 0-68.122 55.126-123.368 123.203-123.562h42.344v-198.997l245.419 198.656h375.467c68.164 0.194 123.369 55.399 123.563 123.544v509.971c0 0.002 0 0.005 0 0.008 0 67.762-54.545 122.784-122.124 123.554l-0.073 0.001z" />
<glyph unicode="&#xe042;" glyph-name="chat-line" d="M512 801.28c225.621 0 409.6-153.259 409.6-341.333-1.866-95.309-46.051-179.934-114.482-236.108l-0.548-0.436-34.133-30.379 15.019-43.691 5.12-13.995 6.144-17.408 4.779-14.336-80.555 37.205-25.6 12.288-26.624-9.557c-46.95-16.872-101.122-26.625-157.571-26.625-0.404 0-0.808 0-1.212 0.001h0.063c-225.621 0-409.6 152.917-409.6 341.333s183.979 341.333 409.6 341.333zM512 867.84c-263.851 1.707-477.867-180.907-477.867-407.893s214.016-409.6 477.867-409.6c0.352-0.001 0.767-0.001 1.183-0.001 64.531 0 126.434 11.256 183.851 31.911l-3.787-1.189 228.352-110.933s-44.373 127.659-59.392 170.667l-10.923 31.403c83.379 69.092 136.641 172.008 138.577 287.418l0.004 0.326c0 226.304-214.016 409.6-477.867 409.6z" />
<glyph unicode="&#xe043;" glyph-name="chatlist-line" d="M88.405 209.067l181.589 88.064c42.631-15.358 91.824-24.237 143.091-24.237 0.455 0 0.909 0.001 1.363 0.002h-0.070c209.92 0 379.904 145.749 379.904 325.632s-169.984 327.339-379.904 327.339-380.245-145.749-380.245-325.973c1.516-92.117 43.894-174.039 109.748-228.63l0.502-0.405c-3.413-9.899-6.485-18.773-8.875-24.917-11.605-34.475-47.104-136.875-47.104-136.875zM102.4 599.893c0 141.995 139.947 257.707 311.979 257.707s311.637-115.712 311.637-257.707-139.605-257.365-311.637-257.365c-0.361-0.001-0.788-0.002-1.216-0.002-43.109 0-84.465 7.504-122.834 21.277l2.536-0.795c-36.589 12.217-68.312 29.505-96.269 51.383l0.696-0.524-7.851 7.168c-52.446 42.588-85.981 106.702-87.038 178.682l-0.002 0.176zM894.635 152.747c56.641 55.236 91.773 132.3 91.773 217.569 0 6.916-0.231 13.779-0.686 20.58l0.049-0.922c-8.871 89.031-55.166 165.745-122.708 215.127l-0.855 0.596c0-2.048 0-3.755 0-5.803 0-217.088-201.045-393.899-448.171-393.899-0.098 0-0.214 0-0.329 0-49.345 0-97.059 6.98-142.209 20.008l3.616-0.893-14.677-6.827c66.41-111.793 186.538-185.546 323.891-185.546 4.333 0 8.649 0.073 12.947 0.219l-0.625-0.017c11.947 0 23.893 0 36.181 0 52.166 4.533 100.235 17.405 144.455 37.309l-2.802-1.128 188.416-73.387-58.027 131.413zM823.979 178.347c-20.268-16.099-43.276-30.247-67.896-41.477l-2.078-0.849-5.12-2.389-5.12-2.048c-33.967-15.363-73.402-25.718-114.838-28.937l-1.215-0.076c-10.24 0-20.48 0-30.72 0-0.431-0.002-0.94-0.003-1.45-0.003-56.952 0-110.723 13.621-158.232 37.784l1.987-0.917c214.357 9.216 395.264 136.533 462.848 309.931 8.037-18.602 13.51-40.169 15.314-62.77l0.046-0.718c0.297-4.417 0.466-9.575 0.466-14.772 0-66.459-27.647-126.461-72.067-169.131l-0.079-0.075z" />
<glyph unicode="&#xe046;" glyph-name="webcam-single-line" d="M512 857.6c0.101 0 0.221 0 0.341 0 179.653 0 325.291-145.638 325.291-325.291s-145.638-325.291-325.291-325.291c-179.653 0-325.291 145.638-325.291 325.291 0 0 0 0 0 0v0c0 179.533 145.443 325.096 324.931 325.291h0.019zM512 925.867c-0.507 0.002-1.107 0.004-1.707 0.004-217.356 0-393.557-176.202-393.557-393.557s176.202-393.557 393.557-393.557c217.354 0 393.555 176.199 393.557 393.553v0.001c0 0.001 0 0.002 0 0.004 0 216.756-175.23 392.584-391.759 393.553h-0.092zM734.549 158.549c-63.234-41.214-140.626-65.726-223.744-65.726s-160.51 24.512-225.343 66.702l1.599-0.976c-111.275-17.749-184.661-51.883-184.661-86.016 0-56.661 183.296-102.4 409.6-102.4s409.6 45.739 409.6 102.4c0 36.181-74.411 68.267-187.051 86.016zM512 721.067c-104.248 0-188.757-84.51-188.757-188.757s84.51-188.757 188.757-188.757c104.248 0 188.757 84.51 188.757 188.757v0c0 0.101 0 0.222 0 0.342 0 104.059-84.357 188.416-188.416 188.416-0.12 0-0.24 0-0.36 0h0.019zM512 421.376c-61.267 0-110.933 49.667-110.933 110.933s49.667 110.933 110.933 110.933c61.267 0 110.933-49.667 110.933-110.933v0c-0.193-61.189-49.744-110.74-110.915-110.933h-0.019zM544.768 789.675c0-19.040-15.435-34.475-34.475-34.475s-34.475 15.435-34.475 34.475c0 19.040 15.435 34.475 34.475 34.475s34.475-15.435 34.475-34.475z" />
<glyph unicode="&#xe047;" glyph-name="round-support-full" d="M512 960c-282.77 0-512-229.23-512-512s229.23-512 512-512c282.77 0 512 229.23 512 512v0c0 282.77-229.23 512-512 512v0zM750.933 296.448h-6.485c-35.098-61.035-90.799-106.873-157.417-128.468l-1.985-0.556c-14.224-16.385-35.086-26.686-58.353-26.686-1.086 0-2.166 0.022-3.241 0.067l0.154-0.005c-38.912 0-70.656 23.211-70.656 51.541s32.085 50.859 70.997 50.859c1.001 0.047 2.173 0.075 3.352 0.075 23.5 0 44.489-10.745 58.324-27.591l0.105-0.132c48.259 19.342 87.524 52.662 113.767 94.914l0.579 1.001c-0.153 0.923-0.24 1.988-0.24 3.072s0.087 2.149 0.255 3.186l-0.015-0.114v221.525c0 0.037 0 0.080 0 0.123 0 11.977 9.072 21.836 20.72 23.079l0.102 0.009c-33.333 85.278-113.84 145.059-208.606 147.45l-0.29 0.006c-94.542-2.881-174.407-62.717-206.659-146.235l-0.531-1.562c11.56-1.25 20.48-10.955 20.48-22.744 0-0.044 0-0.088 0-0.132v0.007-221.184c0-0.019 0-0.041 0-0.063 0-12.218-9.441-22.232-21.426-23.143l-0.078-0.005c-1.434-0.163-3.095-0.256-4.779-0.256s-3.345 0.093-4.98 0.274l0.201-0.018h-21.504c-63.514 11.548-111.042 66.437-111.042 132.426 0 6.142 0.412 12.187 1.209 18.11l-0.076-0.691c0.947 6.005 2.136 11.188 3.637 16.237l-0.224-0.877c-0.072 0.716-0.113 1.548-0.113 2.389s0.041 1.673 0.122 2.493l-0.008-0.104c0 3.413 2.048 6.827 3.413 10.24l3.413 7.168c2.048 4.437 4.096 8.875 6.485 12.971l3.755 5.461 4.437 6.827 5.12 6.485 4.096 2.389c13.225 14.493 29.389 26.060 47.576 33.796l0.893 0.338 6.827 2.389c33.155 115.396 136.243 199.002 259.373 202.402l0.382 0.008c123.342-3.315 226.357-86.619 259.266-199.767l0.489-1.961 6.827-2.389c19.080-8.073 35.245-19.641 48.373-34.027l0.096-0.107 4.096-4.437 5.12-6.485 4.437-6.827 3.755-5.461c2.389-4.096 4.437-8.533 6.485-12.971l2.048-4.779c0-3.413 2.389-6.827 3.413-10.24 0.072-0.716 0.113-1.548 0.113-2.389s-0.041-1.673-0.122-2.493l0.008 0.104c1.278-4.171 2.466-9.355 3.319-14.65l0.094-0.71c0.681-5.085 1.070-10.964 1.070-16.933 0-65.601-46.97-120.232-109.115-132.096l-0.841-0.134z" />
<glyph unicode="&#xe048;" glyph-name="faq-line" d="M845.141 925.867h-664.576c-68.095-0.194-123.221-55.44-123.221-123.562 0 0 0 0 0 0v0-509.611c0 0 0 0 0 0 0-68.122 55.126-123.368 123.203-123.562h42.344v-198.997l245.419 198.656h375.467c68.164 0.194 123.369 55.399 123.563 123.544v509.971c0 0.002 0 0.005 0 0.008 0 67.762-54.545 122.784-122.124 123.554l-0.073 0.001zM900.437 292.693c-0.192-30.461-24.834-55.104-55.278-55.296h-401.426l-152.576-123.563v123.221h-110.592c-30.392 0.194-54.955 24.876-54.955 55.295 0 0 0 0.001 0 0.001v0 509.952c0 0 0 0.001 0 0.001 0 30.419 24.563 55.101 54.936 55.295h664.594c30.461-0.192 55.104-24.834 55.296-55.278v-0.018zM467.285 378.368h67.243v-67.925h-67.243v67.925zM505.856 792.405c-1.555 0.059-3.381 0.093-5.214 0.093-34.559 0-66.315-12-91.329-32.060l0.287 0.223c-23.057-18.923-37.652-47.422-37.652-79.331 0-1.631 0.038-3.253 0.114-4.865l-0.008 0.228v-2.048h61.44c-0.023 0.604-0.037 1.313-0.037 2.025 0 18.026 8.52 34.062 21.753 44.3l0.129 0.096c13.055 10.043 29.633 16.096 47.626 16.096 1.017 0 2.029-0.019 3.037-0.058l-0.145 0.004c2.151 0.231 4.647 0.363 7.174 0.363 17.315 0 33.182-6.198 45.504-16.497l-0.112 0.091c11.597-12.737 18.699-29.746 18.699-48.413 0-2.183-0.097-4.343-0.287-6.476l0.020 0.276c0.031-0.869 0.049-1.89 0.049-2.915 0-17.306-5.111-33.418-13.905-46.91l0.203 0.331c-15.627-22.247-30.753-41.49-46.807-59.903l0.727 0.852c-15.947-13.23-29.090-29.206-38.837-47.283l-0.417-0.845c-5.4-16.358-8.515-35.187-8.515-54.744 0-3.797 0.117-7.566 0.349-11.305l-0.025 0.512h64.171c-0.051 1.647-0.080 3.584-0.080 5.528 0 13.508 1.396 26.69 4.052 39.409l-0.218-1.247c4.715 12.578 12.068 23.224 21.434 31.682l0.070 0.062c22.477 21.187 42.48 44.549 59.815 69.881l0.942 1.458c14.539 21.373 23.214 47.753 23.214 76.159 0 0.346-0.001 0.691-0.004 1.036v-0.053c0.127 2.043 0.199 4.43 0.199 6.834 0 33.236-13.809 63.246-36.002 84.608l-0.037 0.036c-24.397 20.62-56.207 33.154-90.944 33.154-3.671 0-7.31-0.14-10.91-0.415l0.478 0.029z" />
<glyph unicode="&#xe049;" glyph-name="folder-line" d="M1.707 88.917v21.163c-0.975-3.168-1.536-6.809-1.536-10.581s0.561-7.414 1.605-10.845l-0.069 0.264zM1.707 76.288h7.168c-2.907 3.619-5.327 7.795-7.061 12.312l-0.107 0.318zM987.477 500.224h-62.464v178.176c0 32.99-26.744 59.733-59.733 59.733v0h-365.909l-34.133 63.488c-10.373 19.386-30.458 32.364-53.581 32.427h-350.217c-0.101 0.001-0.221 0.001-0.341 0.001-32.801 0-59.392-26.591-59.392-59.392 0 0 0-0.001 0-0.001v0-685.739c1.841-4.834 4.261-9.011 7.239-12.72l-0.071 0.091c6.298-7.333 15.58-11.948 25.941-11.948 0.12 0 0.24 0.001 0.36 0.002h794.606c29.072 0.053 53.877 18.27 63.672 43.905l0.157 0.468 128 342.357c1.523 3.849 2.406 8.308 2.406 12.972 0 19.982-16.199 36.181-36.181 36.181-0.126 0-0.251-0.001-0.377-0.002h0.019zM69.973 660.651v105.131h339.627l31.061-59.392 19.456-36.523h396.629v-170.667h-661.845c-0.066 0-0.144 0-0.222 0-29.12 0-53.982-18.233-63.792-43.906l-0.157-0.468-60.757-161.792zM925.013 387.584l-68.267-182.272-22.528-60.757h-746.837l107.52 287.403h746.837z" />
<glyph unicode="&#xe050;" glyph-name="settings-line" d="M921.6 356.181c-13.293 24.845-21.217 54.303-21.503 85.585l-0.001 0.090c-0.050 1.632-0.079 3.552-0.079 5.479 0 30.839 7.342 59.963 20.375 85.72l-0.498-1.086c17.607 33.316 43.873 60.019 75.834 77.676l0.966 0.49-102.4 167.936c-28.768-9.871-61.959-16.039-96.443-17.055l-0.495-0.012h-7.509c-1.333-0.030-2.903-0.047-4.477-0.047-30.32 0-59.17 6.295-85.314 17.649l1.386-0.536c-34.736 17.137-61.020 46.976-73.096 83.302l-0.29 1.007c-7.845 21.014-12.777 45.295-13.643 70.609l-0.011 0.389h-204.8c0.033-1.213 0.052-2.642 0.052-4.074 0-31.377-9.047-60.642-24.674-85.327l0.387 0.655c-17.066-28.205-40.062-51.2-67.386-67.771l-0.881-0.496c-26.258-16.315-57.977-26.256-91.967-26.962l-0.193-0.003h-4.779c-37.644 0.065-72.939 10.060-103.424 27.505l1.024-0.54-45.056-77.824-50.859-88.405c27.19-16.070 49.921-36.732 67.828-61.154l0.439-0.628c17.918-24.318 28.676-54.87 28.676-87.935 0-0.405-0.002-0.81-0.005-1.215v0.062c-0.835-32.239-11.455-61.842-28.983-86.128l0.311 0.453c-18.029-25.455-40.831-46.296-67.25-61.58l-1.017-0.543 54.272-102.4 46.763-90.453c25.449 15.289 55.712 25.257 88.089 27.61l0.658 0.038h12.288c0.357 0.003 0.78 0.004 1.203 0.004 31.902 0 61.759-8.753 87.301-23.988l-0.782 0.432c25.917-15.414 47.3-35.816 63.382-60.041l0.447-0.716c19.481-28.974 32.378-63.892 35.778-101.55l0.062-0.85h197.632c5.943 41.783 19.904 79.358 40.318 112.539l-0.724-1.264c16.89 29.068 43.783 50.746 75.867 60.513l0.933 0.244c20.407 5.834 43.879 9.307 68.124 9.556l0.143 0.001h8.875c33.769-0.615 65.5-8.738 93.785-22.762l-1.283 0.576 48.811 81.237 52.224 87.040c-32.041 14.483-57.699 38.38-74.001 68.132l-0.41 0.817zM887.467 235.008l-20.48-34.133c-18.453 4.642-39.792 7.594-61.722 8.183l-0.401 0.009h-11.264c-31.14-0.122-61.212-4.476-89.74-12.515l2.359 0.568c-50.070-14.655-91.024-46.952-116.573-89.546l-0.505-0.907c-13.729-22.858-25.358-49.248-33.527-77.118l-0.606-2.413h-87.040c-8.778 27.443-20.366 51.3-34.807 73.103l0.674-1.082c-22.634 34.063-52.046 61.839-86.486 81.936l-1.236 0.666c-34.781 21.234-76.815 33.896-121.79 34.133h-17.133c-19.316-1.422-37.232-4.695-54.422-9.677l1.856 0.461-18.091 34.133-27.307 52.565c13.538 12.474 25.557 26.227 35.985 41.171l0.537 0.813c24.983 34.172 40.232 76.847 40.958 123.048l0.002 0.173c0.021 1.109 0.033 2.416 0.033 3.727 0 47.407-15.513 91.191-41.74 126.553l0.406-0.573c-10.51 15.028-21.73 28.197-34.073 40.219l-0.060 0.059 21.163 36.523 16.043 28.331c21.541-6.284 46.286-9.899 71.876-9.899 0.051 0 0.102 0 0.153 0h4.771c46.789 1.208 90.114 15.026 127.001 38.16l-1.049-0.614c38.036 21.805 69.172 51.63 91.871 87.344l0.631 1.062c9.882 15.997 18.245 34.448 24.143 53.97l0.433 1.668h88.064c2.502-10.548 5.43-19.545 8.988-28.217l-0.454 1.251c18.798-54.438 57.87-97.732 107.966-121.655l1.26-0.542c33.051-14.689 71.611-23.242 112.168-23.242 1.486 0 2.97 0.011 4.451 0.034l-0.224-0.003h9.216c22.815 0.704 44.557 3.158 65.719 7.24l-2.573-0.413 43.008-72.363c-46.232-45.638-74.868-109.006-74.868-179.061 0-2.689 0.042-5.369 0.126-8.038l-0.010 0.39c0.422-42.943 11.496-83.207 30.698-118.399l-0.66 1.322c11.776-21.739 26.223-40.322 43.224-56.204l0.125-0.116zM508.928 678.741c-126.752-2.113-228.693-105.36-228.693-232.418 0-128.377 104.071-232.448 232.448-232.448 128.367 0 232.431 104.053 232.448 232.416v0.002c-1.156 128.628-105.696 232.454-234.487 232.454-0.603 0-1.206-0.002-1.808-0.007l0.093 0.001zM508.928 282.112c-89.045 2.101-160.427 74.784-160.427 164.138 0 90.675 73.506 164.181 164.181 164.181 90.66 0 164.157-73.482 164.181-164.136v-0.002c-1.151-90.925-75.128-164.19-166.217-164.19-0.604 0-1.208 0.003-1.811 0.010l0.092-0.001z" />
<glyph unicode="&#xe051;" glyph-name="single-play-full" d="M311.296 847.019c-10.72 7.336-23.968 11.715-38.239 11.715-37.703 0-68.267-30.564-68.267-68.267 0-0.398 0.003-0.796 0.010-1.193l-0.001 0.060v-682.667c-0.001-0.132-0.001-0.289-0.001-0.445 0-37.703 30.564-68.267 68.267-68.267 14.267 0 27.512 4.377 38.466 11.861l-0.235-0.151 507.904 341.675c18.315 12.433 30.19 33.161 30.19 56.661s-11.875 44.228-29.952 56.509l-0.238 0.153z" />
<glyph unicode="&#xe052;" glyph-name="single-play-line" d="M273.067 789.333l508.587-341.333-508.587-341.333v682.667zM273.067 857.6c-37.703 0-68.267-30.564-68.267-68.267v0-682.667c0-37.703 30.564-68.267 68.267-68.267v0c0.045 0 0.099 0 0.152 0 14.202 0 27.391 4.337 38.315 11.758l-0.238-0.153 507.904 341.333c18.315 12.433 30.19 33.161 30.19 56.661s-11.875 44.228-29.952 56.509l-0.238 0.153-507.904 342.357c-10.35 6.651-22.983 10.602-36.54 10.602-0.594 0-1.186-0.008-1.777-0.023l0.087 0.002z" />
<glyph unicode="&#xe053;" glyph-name="medialibrary-line" d="M955.733 755.2h-887.467c-37.703 0-68.267-30.564-68.267-68.267v0-682.667c0-37.703 30.564-68.267 68.267-68.267v0h887.467c37.703 0 68.267 30.564 68.267 68.267v0 682.667c0 37.703-30.564 68.267-68.267 68.267v0zM955.733 75.605c0-37.703-30.564-68.267-68.267-68.267v0h-750.933c-37.703 0-68.267 30.564-68.267 68.267v0 543.061c0 37.703 30.564 68.267 68.267 68.267v0h750.933c37.703 0 68.267-30.564 68.267-68.267v0zM450.56 565.077c-5.572 4.116-12.576 6.588-20.157 6.588-18.851 0-34.133-15.282-34.133-34.133 0-0.396 0.007-0.791 0.020-1.183l-0.002 0.057v-381.611c-0.012-0.336-0.019-0.73-0.019-1.126 0-18.851 15.282-34.133 34.133-34.133 7.582 0 14.586 2.472 20.251 6.653l-0.093-0.066 283.989 190.805c9.304 6.196 15.351 16.643 15.351 28.501s-6.047 22.305-15.227 28.423l-0.125 0.078zM924.331 823.467c0 18.851-15.282 34.133-34.133 34.133v0h-750.933c-18.851 0-34.133-15.282-34.133-34.133v0-34.133h819.2zM819.2 925.867c0 18.851-15.282 34.133-34.133 34.133v0h-546.133c-18.851 0-34.133-15.282-34.133-34.133v0-34.133h614.4z" />
<glyph unicode="&#xe054;" glyph-name="videocamera-line" d="M614.4 652.8v-409.6h-546.133v409.6h546.133zM614.4 721.067h-546.133c-37.703 0-68.267-30.564-68.267-68.267v0-409.6c0-37.703 30.564-68.267 68.267-68.267v0h546.133c37.703 0 68.267 30.564 68.267 68.267v0 409.6c0 37.703-30.564 68.267-68.267 68.267v0zM955.733 576.683v-258.048l-150.187 68.267v119.467l150.187 70.315zM955.733 652.8l-218.453-102.4v-204.8l218.453-102.4c37.703 0 68.267 30.564 68.267 68.267v0 273.067c0 37.703-30.564 68.267-68.267 68.267v0z" />
<glyph unicode="&#xe055;" glyph-name="video-play-full" d="M614.4 721.067h-546.133c-37.703 0-68.267-30.564-68.267-68.267v0-409.6c0-37.703 30.564-68.267 68.267-68.267v0h546.133c37.703 0 68.267 30.564 68.267 68.267v0 409.6c0 37.703-30.564 68.267-68.267 68.267v0zM425.984 418.645l-136.533-93.184c-5.432-3.812-12.181-6.092-19.462-6.092-18.851 0-34.133 15.282-34.133 34.133 0 0.222 0.002 0.443 0.006 0.664v-0.033 186.709c-0.004 0.188-0.006 0.409-0.006 0.631 0 18.851 15.282 34.133 34.133 34.133 7.281 0 14.030-2.28 19.571-6.165l-0.11 0.073 136.533-93.184c8.924-6.245 14.687-16.475 14.687-28.052 0-12.151-6.35-22.82-15.912-28.868l-0.14-0.083zM955.733 652.8l-218.453-102.4v-204.8l218.453-102.4c37.703 0 68.267 30.564 68.267 68.267v0 273.067c0 37.703-30.564 68.267-68.267 68.267v0z" />
<glyph unicode="&#xe056;" glyph-name="video-play-line" d="M614.4 652.8v-409.6h-546.133v409.6h546.133zM614.4 721.067h-546.133c-37.703 0-68.267-30.564-68.267-68.267v0-409.6c0-37.703 30.564-68.267 68.267-68.267v0h546.133c37.703 0 68.267 30.564 68.267 68.267v0 409.6c0 37.703-30.564 68.267-68.267 68.267v0zM955.733 576.683v-258.048l-150.187 68.267v119.467l150.187 70.315zM955.733 652.8l-218.453-102.4v-204.8l218.453-102.4c37.703 0 68.267 30.564 68.267 68.267v0 273.067c0 37.703-30.564 68.267-68.267 68.267v0zM286.379 569.515c-5.432 3.812-12.181 6.092-19.462 6.092-18.851 0-34.133-15.282-34.133-34.133 0-0.222 0.002-0.443 0.006-0.664v0.033-186.027c-0.004-0.188-0.006-0.409-0.006-0.631 0-18.851 15.282-34.133 34.133-34.133 7.281 0 14.030 2.28 19.571 6.165l-0.11-0.073 136.533 93.184c9.304 6.196 15.351 16.643 15.351 28.501s-6.047 22.305-15.227 28.423l-0.125 0.078z" />
<glyph unicode="&#xe057;" glyph-name="videotake-line" d="M108.203 559.957l879.616 186.027-26.624 126.293c-6.972 30.876-34.169 53.59-66.67 53.59-0.081 0-0.162 0-0.244 0h0.013c-2.099 0.241-4.532 0.379-6.997 0.379s-4.898-0.138-7.291-0.405l0.294 0.027-787.115-167.595c-31.101-6.797-54.043-34.104-54.043-66.768 0-5.003 0.538-9.881 1.56-14.578l-0.082 0.451 24.917-117.419v-503.467c0-37.703 30.564-68.267 68.267-68.267v0h787.797c37.703 0 68.267 30.564 68.267 68.267v0 503.467zM831.829 859.989l48.811-88.747-75.435-16.043-48.811 89.088zM682.667 828.245l48.811-88.747-75.435-16.043-48.811 88.747zM529.408 795.819l48.811-88.747-75.435-16.043-48.811 88.747zM378.539 763.733l48.811-88.747-75.435-16.043-50.176 89.088zM224.597 735.061l48.469-88.747-75.435-16.043-49.493 89.088zM122.197 632.661v0 0zM838.997 512.853h76.8l-38.229-115.371h-79.872zM682.667 508.075h76.8l-38.229-110.933h-77.483zM525.653 508.075h77.141l-38.571-110.933h-77.141zM371.712 508.075h77.141l-39.253-110.933h-76.459zM217.771 508.075h76.8l-38.571-110.933h-77.141zM921.6 56.149h-787.797v289.451h787.797z" />
<glyph unicode="&#xe058;" glyph-name="videotake-play-line" d="M108.203 559.957l879.616 186.027-26.624 126.293c-6.972 30.876-34.169 53.59-66.67 53.59-0.081 0-0.162 0-0.244 0h0.013c-2.099 0.241-4.532 0.379-6.997 0.379s-4.898-0.138-7.291-0.405l0.294 0.027-787.115-167.595c-31.101-6.797-54.043-34.104-54.043-66.768 0-5.003 0.538-9.881 1.56-14.578l-0.082 0.451 24.917-117.419v-503.467c0-37.703 30.564-68.267 68.267-68.267v0h787.797c37.703 0 68.267 30.564 68.267 68.267v0 503.467zM831.829 859.989l48.811-88.747-75.435-16.043-48.811 89.088zM682.667 828.245l48.811-88.747-75.435-16.043-48.811 88.747zM529.408 795.819l48.811-88.747-75.435-16.043-48.811 88.747zM378.539 763.733l48.811-88.747-75.435-16.043-50.176 89.088zM224.597 735.061l48.469-88.747-75.435-16.043-49.493 89.088zM122.197 632.661v0 0zM838.997 512.853h76.8l-38.229-115.371h-79.872zM682.667 508.075h76.8l-38.229-110.933h-77.483zM525.653 508.075h77.141l-38.571-110.933h-77.141zM371.712 508.075h77.141l-39.253-110.933h-76.459zM217.771 508.075h76.8l-38.571-110.933h-77.141zM921.6 56.149h-787.797v289.451h787.797zM496.981 307.712c-2.651 1.923-5.97 3.076-9.557 3.076-9.049 0-16.384-7.335-16.384-16.384 0-0.002 0-0.003 0-0.005v0-196.267c0-0.001 0-0.003 0-0.004 0-9.049 7.335-16.384 16.384-16.384 3.588 0 6.906 1.153 9.605 3.109l-0.048-0.033 136.533 97.963c4.16 3.079 6.828 7.969 6.828 13.483s-2.668 10.404-6.783 13.451l-0.045 0.032z" />
<glyph unicode="&#xe059;" glyph-name="fullscreen-player-close-full" d="M955.733 857.6h-887.467c-37.703 0-68.267-30.564-68.267-68.267v0-682.667c0-37.703 30.564-68.267 68.267-68.267v0h887.467c37.703 0 68.267 30.564 68.267 68.267v0 682.667c0 37.703-30.564 68.267-68.267 68.267v0zM461.824 304.64l-73.045 73.387-170.667-170.667-47.445 49.835 170.667 168.96-74.069 73.387h194.901zM757.077 395.435h-194.56v194.56l73.045-73.728 168.96 170.667 48.811-49.152-170.667-169.301z" />
<glyph unicode="&#xe060;" glyph-name="fullscreen-player-open-full" d="M955.733 857.6h-887.467c-37.703 0-68.267-30.564-68.267-68.267v0-682.667c0-37.703 30.564-68.267 68.267-68.267v0h887.467c37.703 0 68.267 30.564 68.267 68.267v0 682.667c0 37.703-30.564 68.267-68.267 68.267v0zM366.251 209.067h-195.584v194.56l73.045-73.387 170.667 170.667 48.128-48.469-169.301-170.325zM779.605 564.395l-170.667-170.667-48.128 48.128 170.667 170.667-73.387 74.411h195.243v-194.901z" />
<glyph unicode="&#xe061;" glyph-name="speaker-line" d="M562.517 739.157c7.541 0 13.653-6.113 13.653-13.653v0-555.349c-0.186-7.465-6.189-13.468-13.636-13.653h-0.017c-3.028 0.039-5.778 1.198-7.861 3.081l0.010-0.009-247.467 191.829h-191.488c-7.422 0.153-13.381 6.206-13.381 13.651 0 0.482 0.025 0.958 0.074 1.427l-0.005-0.059v162.816c0 0.001 0 0.003 0 0.004 0 7.232 5.767 13.117 12.953 13.307h191.847l18.773 15.019 226.987 179.883c2.197 1.871 5.056 3.024 8.182 3.072h0.010zM561.152 808.789c-18.908-0.801-35.988-8.030-49.251-19.54l0.099 0.084-226.987-179.883h-170.667c-43.994-0.754-79.46-36.219-80.212-80.142l-0.001-0.071v-162.816c0-45.055 36.524-81.579 81.579-81.579h167.936l228.352-178.176c13.556-10.812 30.926-17.364 49.825-17.408h0.010c0.102 0 0.222-0.001 0.342-0.001 45.055 0 81.579 36.524 81.579 81.579 0 0.12 0 0.241-0.001 0.361v-0.019 554.325c0 45.243-36.677 81.92-81.92 81.92v0zM870.059 741.205c-6.256 6.766-15.179 10.989-25.088 10.989s-18.832-4.222-25.067-10.966l-0.021-0.023c-6.141-6.171-9.937-14.68-9.937-24.076 0-9.050 3.522-17.278 9.271-23.387l-0.016 0.017c61.315-65.867 99.289-154.18 100.35-251.35l0.002-0.213c-1.282-94.736-37.454-180.783-96.217-246.102l0.302 0.342c-6.033-6.152-9.757-14.588-9.757-23.893s3.724-17.742 9.763-23.899l-0.005 0.005c6.2-6.324 14.832-10.244 24.38-10.244 0.189 0 0.377 0.002 0.566 0.005h-0.028c9.506 0.423 17.942 4.673 23.867 11.234l0.027 0.030c71.002 76.831 115.246 179.308 117.412 292.089l0.007 0.433c-1.154 115.859-46.532 220.901-120.031 299.248l0.223-0.24zM777.216 646.315c-6.308 7.855-15.911 12.841-26.678 12.841-8.786 0-16.796-3.319-22.845-8.772l0.030 0.027-2.731-3.072c-5.627-6.068-9.079-14.221-9.079-23.181 0-7.438 2.379-14.32 6.418-19.928l-0.069 0.101c34.339-44.212 55.29-100.319 55.977-161.293l0.001-0.157c-0.729-58.569-19.949-112.51-52.074-156.411l0.532 0.763c-4.227-5.619-6.77-12.714-6.77-20.404 0-9.176 3.621-17.506 9.511-23.64l-0.011 0.012 3.413-3.072c5.58-5.693 13.35-9.222 21.944-9.222 0.205 0 0.41 0.002 0.615 0.006h2.7c10.143 0.947 18.896 6.204 24.508 13.898l0.068 0.097c40.483 54.171 64.818 122.462 64.818 196.437 0 77.144-26.465 148.106-70.811 204.304l0.532-0.699z" />
<glyph unicode="&#xe062;" glyph-name="speaker-muted-line" d="M562.517 739.157c7.541 0 13.653-6.113 13.653-13.653v0-99.669l-70.997 71.339 49.152 38.912c2.197 1.871 5.056 3.024 8.182 3.072h0.010zM562.517 807.424c-19.236-0.056-36.869-6.875-50.657-18.202l0.14 0.111-109.227-86.357 241.664-241.664v264.192c0 45.243-36.677 81.92-81.92 81.92v0zM919.552 442.197c-0.672-73.211-22.741-141.135-60.242-197.98l0.85 1.372 49.835-50.176c49.166 68.678 78.948 154.164 79.87 246.56l0.002 0.224c-0.854 115.729-45.88 220.779-119.029 299.274l0.245-0.266c-6.256 6.766-15.179 10.989-25.088 10.989s-18.832-4.222-25.067-10.966l-0.021-0.023c-6.462-6.22-10.475-14.943-10.475-24.604 0-8.798 3.329-16.818 8.795-22.871l-0.027 0.030c61.315-65.867 99.289-154.18 100.35-251.35l0.002-0.213zM778.24 442.88c-0.147-35.152-7.412-68.568-20.428-98.934l0.63 1.654 52.907-52.907c22.672 43.248 36.035 94.457 36.181 148.775v0.047c-0.256 77.509-26.674 148.799-70.88 205.553l0.565-0.753c-6.308 7.855-15.911 12.841-26.678 12.841-8.786 0-16.796-3.319-22.845-8.772l0.030 0.027-2.731-3.072c-5.627-6.068-9.079-14.221-9.079-23.181 0-7.438 2.379-14.32 6.418-19.928l-0.069 0.101c34.339-44.212 55.29-100.319 55.977-161.293l0.001-0.157zM343.723 568.832l232.448-232.448v-166.229c-0.186-7.465-6.189-13.468-13.636-13.653h-0.017c-3.028 0.039-5.778 1.198-7.861 3.081l0.010-0.009-247.467 191.829h-191.488c-7.422 0.153-13.381 6.206-13.381 13.651 0 0.482 0.025 0.958 0.074 1.427l-0.005-0.059v162.816c0 0.001 0 0.003 0 0.004 0 7.232 5.767 13.117 12.953 13.307h191.847l18.773 15.019 9.557 7.509 6.827 5.12zM77.483 916.651c-9.37-0.138-17.804-4.029-23.888-10.234l-0.005-0.006c-6.339-6.203-10.27-14.845-10.27-24.405s3.93-18.203 10.264-24.399l0.006-0.006 240.981-238.933-9.557-7.851h-170.667c-44.464-0.768-80.213-36.993-80.213-81.567 0-0.004 0-0.008 0-0.012v0.001-162.816c0-45.055 36.524-81.579 81.579-81.579h167.936l228.352-178.176c13.556-10.812 30.926-17.364 49.825-17.408h0.010c0.102 0 0.222-0.001 0.342-0.001 45.055 0 81.579 36.524 81.579 81.579 0 0.12 0 0.241-0.001 0.361v-0.019 95.915l277.845-275.797c6.168-6.289 14.74-10.199 24.227-10.24h0.008c9.37 0.138 17.804 4.029 23.888 10.234l0.005 0.006c6.134 6.17 9.926 14.674 9.926 24.064s-3.792 17.894-9.927 24.066l-867.326 866.985c-6.168 6.289-14.74 10.199-24.227 10.24h-0.008z" />
<glyph unicode="&#xe063;" glyph-name="tv-full" d="M882.688 699.904h-741.376c-37.703 0-68.267-30.564-68.267-68.267v0-524.971c0-37.703 30.564-68.267 68.267-68.267v0h741.376c37.703 0 68.267 30.564 68.267 68.267v0 524.288c0.002 0.203 0.003 0.443 0.003 0.683 0 37.703-30.564 68.267-68.267 68.267-0.001 0-0.002 0-0.004 0v0zM459.435 340.821l-138.24-93.184c-5.439-3.827-12.201-6.117-19.497-6.117-18.851 0-34.133 15.282-34.133 34.133 0 0.591 0.015 1.178 0.045 1.761l-0.003-0.082v185.003c-0.001 0.085-0.001 0.185-0.001 0.286 0 18.851 15.282 34.133 34.133 34.133 7.279 0 14.026-2.279 19.567-6.162l-0.11 0.073 138.24-92.843c9.304-6.196 15.351-16.643 15.351-28.501s-6.047-22.305-15.227-28.423l-0.125-0.078zM883.371 168.448c0-37.703-30.564-68.267-68.267-68.267v0h-166.571v537.941h167.253c37.703 0 68.267-30.564 68.267-68.267v0zM769.024 584.533c-0.101 0.001-0.221 0.001-0.341 0.001-29.22 0-52.907-23.687-52.907-52.907s23.687-52.907 52.907-52.907c29.219 0 52.906 23.686 52.907 52.905v0c0.001 0.101 0.001 0.221 0.001 0.341 0 29.031-23.534 52.565-52.565 52.565 0 0-0.001 0-0.001 0v0zM769.707 311.467c14.515 0.001 26.28 11.768 26.28 26.283s-11.767 26.283-26.283 26.283c-14.516 0-26.283-11.767-26.283-26.283 0-0.12 0.001-0.24 0.002-0.359v0.018c0.193-14.368 11.885-25.941 26.28-25.941 0.001 0 0.002 0 0.002 0v0zM770.389 259.243c-0.101 0.001-0.221 0.002-0.341 0.002-14.704 0-26.624-11.92-26.624-26.624s11.92-26.624 26.624-26.624c14.703 0 26.623 11.919 26.624 26.622v0c0 0.001 0 0.001 0 0.002 0 14.584-11.726 26.429-26.265 26.622h-0.018zM600.064 744.619c-5.085 40.23-39.092 71.030-80.292 71.030-2.737 0-5.442-0.136-8.109-0.401l0.337 0.027c-2.33 0.238-5.035 0.374-7.772 0.374-41.2 0-75.207-30.8-80.251-70.631l-0.041-0.4zM696.32 883.2c4.257 4.559 6.871 10.7 6.871 17.452 0 14.138-11.462 25.6-25.6 25.6-6.752 0-12.893-2.614-17.467-6.885l0.015 0.014-79.872-78.507 37.547-36.181zM405.504 804.693l36.181 36.181-78.507 78.507c-4.686 5.019-11.342 8.148-18.729 8.148-14.138 0-25.6-11.462-25.6-25.6 0-7.387 3.129-14.043 8.133-18.715l0.015-0.014z" />
<glyph unicode="&#xe064;" glyph-name="camera-line" d="M955.733 785.92h-245.76l-75.093 51.2h-232.107l-75.093-51.2h-259.413c-37.547 0-68.267-30.72-68.267-68.267v-610.987c0-37.547 30.72-68.267 68.267-68.267h887.467c37.547 0 68.267 30.72 68.267 68.267v610.987c0 37.547-30.72 68.267-68.267 68.267 0 0 0 0 0 0zM955.733 652.8v-546.133h-887.467v610.987h279.893l17.067 13.653 58.027 40.96h191.147l58.027-40.96 17.067-13.653h269.653l-3.413-64.853zM512 625.493c-116.053-3.413-208.213-98.987-204.8-215.040-3.413-116.053 88.747-211.627 204.8-215.040 116.053 3.413 208.213 98.987 204.8 215.040 3.413 116.053-88.747 211.627-204.8 215.040zM512 273.92c-75.093 3.413-133.12 64.853-133.12 139.947s58.027 136.533 133.12 139.947c75.093-3.413 133.12-64.853 133.12-136.533 0-78.507-58.027-139.947-133.12-143.36z" />
<glyph unicode="&#xe065;" glyph-name="mobile-line" d="M788.139 657.579h-336.213c-37.703 0-68.267-30.564-68.267-68.267v0-585.045c0-37.703 30.564-68.267 68.267-68.267v0h336.213c37.703 0 68.267 30.564 68.267 68.267v0 584.704c0.001 0.101 0.001 0.221 0.001 0.341 0 37.703-30.564 68.267-68.267 68.267 0 0-0.001 0-0.001 0v0zM788.139 3.925h-336.555v585.387h336.896zM500.736 756.565l-9.899-30.379h57.003l46.421 141.312-143.019-73.045-124.587 165.547-19.797-200.363-198.997-25.6 138.24-109.227-106.837-147.456 175.445 29.013v54.955l-52.907-8.875 60.416 83.285-78.165 59.733 109.909 17.408 12.288 103.765 69.973-93.184 64.512 33.109zM585.045 556.544h-53.931c-26.203 0-47.445-21.242-47.445-47.445v0 0c0-26.203 21.242-47.445 47.445-47.445v0h53.931c0 0 0.001 0 0.001 0 26.272 0 47.592 21.201 47.785 47.427v0.018c-0.193 26.245-21.514 47.445-47.785 47.445 0 0-0.001 0-0.001 0v0zM533.504 485.547c-13.573 0-24.576 11.003-24.576 24.576s11.003 24.576 24.576 24.576v0c13.573 0 24.576-11.003 24.576-24.576s-11.003-24.576-24.576-24.576v0zM592.213 496.128c-6.205 1.045-10.873 6.377-10.873 12.8s4.668 11.755 10.797 12.789l0.076 0.011c0.63 0.109 1.357 0.171 2.097 0.171 7.164 0 12.971-5.807 12.971-12.971s-5.807-12.971-12.971-12.971c-0.741 0-1.467 0.062-2.173 0.181l0.076-0.011z" />
<glyph unicode="&#xe066;" glyph-name="mobile-send-line" d="M482.645 269.483c-16.914 17.026-27.368 40.487-27.368 66.389s10.454 49.364 27.373 66.394l59.046 59.046c17.923 17.562 39.396 31.577 63.233 40.863l1.279 0.438v389.12c0 37.703-30.564 68.267-68.267 68.267v0h-435.541c-37.703 0-68.267-30.564-68.267-68.267v0-853.333c0-37.703 30.564-68.267 68.267-68.267v0h435.541c37.703 0 68.267 30.564 68.267 68.267v0 223.232c-15.647-12.314-35.638-19.75-57.365-19.75-25.885 0-49.305 10.554-66.191 27.594l-0.007 0.007zM537.941 98.816v-60.416h-435.541v853.333h433.493v-347.136c-16.783-10.162-31.322-21.443-44.43-34.188l0.057 0.055-59.051-59.392c-29.432-29.355-47.641-69.95-47.641-114.798 0-85.288 65.854-155.195 149.487-161.647l0.554-0.034zM277.845 838.144h-64.853c-31.67 0-57.344-25.674-57.344-57.344v0c0-31.67 25.674-57.344 57.344-57.344v0h64.853c31.67 0 57.344 25.674 57.344 57.344v0 0c0 31.67-25.674 57.344-57.344 57.344v0zM215.381 752.469c-16.252 0.194-29.353 13.414-29.353 29.694 0 16.401 13.295 29.696 29.696 29.696s29.696-13.295 29.696-29.696c0-0.119-0.001-0.238-0.002-0.357v0.018c-0.382-16.293-13.68-29.355-30.030-29.355-0.003 0-0.005 0-0.008 0v0zM286.379 765.44c-8.483 0-15.36 6.877-15.36 15.36s6.877 15.36 15.36 15.36v0c8.483 0 15.36-6.877 15.36-15.36s-6.877-15.36-15.36-15.36v0zM977.237 445.611c-7.576 7.794-18.159 12.63-29.872 12.63-0.058 0-0.116 0-0.174 0h0.009c-11.855-0.098-22.57-4.902-30.382-12.633l0.004 0.004c-7.555-7.754-12.232-18.344-12.288-30.026v-132.448l-141.995 141.995c-23.527 23.492-56.011 38.020-91.887 38.020-28.856 0-55.517-9.398-77.089-25.301l0.357 0.252c-5.904-3.907-11.045-8.181-15.68-12.949l-0.021-0.022-59.392-59.051c-7.744-7.725-12.535-18.407-12.535-30.208s4.791-22.483 12.534-30.207l0.001-0.001c3.997-3.994 8.759-7.223 14.046-9.449l0.29-0.108c1.124-0.092 2.433-0.145 3.755-0.145s2.631 0.053 3.926 0.156l-0.171-0.011c2.506-0.876 5.41-1.484 8.423-1.7l0.11-0.006c4.503 0.332 8.685 1.182 12.657 2.495l-0.369-0.106h3.755c2.64 1.664 4.867 3.238 7.008 4.916l-0.181-0.137c2.73 1.522 5.074 3.104 7.273 4.86l-0.105-0.081 59.051 59.051c8.159 8.187 19.445 13.252 31.915 13.252s23.756-5.065 31.913-13.251l144.044-144.044h-139.264c-23.564 0-42.667-19.103-42.667-42.667s19.103-42.667 42.667-42.667v0h238.933c0.358-0.012 0.779-0.018 1.202-0.018 11.328 0 21.554 4.716 28.822 12.292l0.013 0.014c8.127 7.572 13.379 18.137 13.99 29.93l0.004 0.107v235.52c0.022 0.506 0.034 1.099 0.034 1.695 0 11.775-4.847 22.417-12.655 30.041l-0.008 0.008z" />
<glyph unicode="&#xe067;" glyph-name="smartphone-full" d="M411.648 811.52c-16.401 0-29.696-13.295-29.696-29.696s13.295-29.696 29.696-29.696c16.401 0 29.696 13.295 29.696 29.696v0c0 16.401-13.295 29.696-29.696 29.696v0zM482.645 796.16c-8.483 0-15.36-6.877-15.36-15.36s6.877-15.36 15.36-15.36c8.483 0 15.36 6.877 15.36 15.36v0c0 8.483-6.877 15.36-15.36 15.36v0zM802.133 877.056v14.677c0 37.703-30.564 68.267-68.267 68.267v0h-434.176c-37.703 0-68.267-30.564-68.267-68.267v0-853.333c0-37.703 30.564-68.267 68.267-68.267v0h434.176c37.703 0 68.267 30.564 68.267 68.267v0zM531.456 780.8c0-31.67-25.674-57.344-57.344-57.344v0h-64.512c-0.203-0.003-0.443-0.004-0.683-0.004-31.67 0-57.344 25.674-57.344 57.344 0 0.001 0 0.003 0 0.004v0c0 0.001 0 0.003 0 0.004 0 31.67 25.674 57.344 57.344 57.344 0.24 0 0.48-0.001 0.719-0.004h65.159c31.67 0 57.344-25.674 57.344-57.344v0z" />
<glyph unicode="&#xe068;" glyph-name="smartphone-line" d="M732.843 960h-433.152c-37.703 0-68.267-30.564-68.267-68.267v0-853.333c0-37.703 30.564-68.267 68.267-68.267v0h434.176c37.703 0 68.267 30.564 68.267 68.267v0 853.333c0 0.002 0 0.005 0 0.008 0 37.703-30.564 68.267-68.267 68.267-0.36 0-0.719-0.003-1.078-0.008l0.054 0.001zM732.843 877.056v-838.656h-434.517v853.333h434.517zM474.112 838.144h-64.512c-0.203 0.003-0.443 0.004-0.683 0.004-31.67 0-57.344-25.674-57.344-57.344 0-0.001 0-0.003 0-0.004v0c0-0.001 0-0.003 0-0.004 0-31.67 25.674-57.344 57.344-57.344 0.24 0 0.48 0.001 0.719 0.004h65.159c31.67 0 57.344 25.674 57.344 57.344v0 0c0 0.001 0 0.003 0 0.004 0 31.67-25.674 57.344-57.344 57.344-0.24 0-0.48-0.001-0.719-0.004h0.036zM411.648 752.469c-16.4 0.001-29.694 13.296-29.694 29.696s13.295 29.696 29.696 29.696c16.401 0 29.696-13.295 29.696-29.696 0-0.12-0.001-0.24-0.002-0.36v0.018c-0.193-16.253-13.413-29.355-29.694-29.355-0.001 0-0.001 0-0.002 0v0zM482.645 765.44c-8.483 0-15.36 6.877-15.36 15.36s6.877 15.36 15.36 15.36c8.483 0 15.36-6.877 15.36-15.36v0c0-8.483-6.877-15.36-15.36-15.36v0z" />
<glyph unicode="&#xe069;" glyph-name="keylock_close_line" d="M853.333 589.995h-16.725c0 4.779 0 9.557 0 14.677 0 179.653-145.638 325.291-325.291 325.291s-325.291-145.638-325.291-325.291v0c0-5.12 0-9.899 0-14.677h-15.36c-37.703 0-68.267-30.564-68.267-68.267v0-489.131c0-37.703 30.564-68.267 68.267-68.267v0h682.667c37.703 0 68.267 30.564 68.267 68.267v0 489.131c0 37.703-30.564 68.267-68.267 68.267v0zM512 863.061c142.061-0.194 257.171-115.304 257.365-257.346v-0.019c0-5.12 0-9.899 0-14.677h-512c0 4.779 0 9.557 0 14.677 0.759 140.67 114.105 254.615 254.471 256.34l0.163 0.002zM853.333 33.621h-682.667v488.107h682.667zM609.963 345.6c-0.009 53.531-43.406 96.923-96.939 96.923-53.538 0-96.939-43.401-96.939-96.939 0-32.994 16.484-62.139 41.666-79.647l0.318-0.209-19.797-154.965h152.917l-20.48 157.355c23.898 17.706 39.226 45.801 39.253 77.478v0.004z" />
<glyph unicode="&#xe070;" glyph-name="keylock_open_line" d="M853.333 589.995h-596.992c0 4.779 0 9.557 0 14.677 0 0.109 0 0.239 0 0.369 0 142.139 115.226 257.365 257.365 257.365 103.414 0 192.582-60.993 233.493-148.968l0.662-1.587 50.517 50.517c-56.372 101.547-162.972 169.135-285.358 169.135-179.653 0-325.291-145.638-325.291-325.291 0-0.542 0.001-1.083 0.004-1.624v0.084c0-5.12 0-9.899 0-14.677h-17.067c-37.703 0-68.267-30.564-68.267-68.267v0-489.131c0-37.703 30.564-68.267 68.267-68.267v0h682.667c37.703 0 68.267 30.564 68.267 68.267v0 489.131c0 37.703-30.564 68.267-68.267 68.267v0zM853.333 32.597h-682.667v489.131h682.667zM609.963 345.6c-0.009 53.531-43.406 96.923-96.939 96.923-53.538 0-96.939-43.401-96.939-96.939 0-32.994 16.484-62.139 41.666-79.647l0.318-0.209-19.797-154.965h152.917l-20.48 157.355c23.898 17.706 39.226 45.801 39.253 77.478v0.004z" />
<glyph unicode="&#xe071;" glyph-name="archiv-line" d="M675.84 429.568h-129.707v130.048c0 18.851-15.282 34.133-34.133 34.133s-34.133-15.282-34.133-34.133v0-130.048h-130.048c-9.2-0.136-17.498-3.891-23.554-9.901l0.002 0.002c-5.836-6.113-9.427-14.413-9.427-23.552s3.591-17.439 9.44-23.565l-0.013 0.013c6.054-6.008 14.352-9.763 23.526-9.898h130.074v-130.731c0-18.851 15.282-34.133 34.133-34.133v0c9.2 0.136 17.498 3.891 23.554 9.901l-0.002-0.002c6.008 6.054 9.763 14.352 9.898 23.526v131.781h130.389c18.851 0 34.133 15.282 34.133 34.133v0 0c-0.934 18.102-15.84 32.427-34.091 32.427-0.015 0-0.030 0-0.045 0h0.002zM955.733 747.691h-420.181l-38.229 72.704c-11.552 22.261-34.427 37.208-60.792 37.208-0.228 0-0.455-0.001-0.682-0.003h-367.581c-37.703 0-68.267-30.564-68.267-68.267v0-682.667c0-37.703 30.564-68.267 68.267-68.267v0h887.467c37.703 0 68.267 30.564 68.267 68.267v0 572.416c0.001 0.101 0.001 0.221 0.001 0.341 0 37.703-30.564 68.267-68.267 68.267 0 0-0.001 0-0.001 0v0zM955.733 508.757v0-333.824c0-37.703-30.564-68.267-68.267-68.267v0h-750.933c-37.703 0-68.267 30.564-68.267 68.267v0 543.744c0 39.022 31.634 70.656 70.656 70.656v0h296.96l38.229-72.704 9.899-18.432c5.848-10.82 17.093-18.055 30.032-18.091h373.424c37.703 0 68.267-30.564 68.267-68.267v0z" />
<glyph unicode="&#xe072;" glyph-name="note-full" d="M650.923 610.133l68.267 68.267v92.501c0 37.703-30.564 68.267-68.267 68.267v0h-510.976c-37.703 0-68.267-30.564-68.267-68.267v0-638.976c0-37.703 30.564-68.267 68.267-68.267v0h512c37.703 0 68.267 30.564 68.267 68.267v0 159.061l-121.515-116.053-185.685 8.533v189.099zM596.309 638.123v0h6.827zM484.693 345.259l5.803-88.747 89.088-6.144 291.157 291.157-94.891 94.891-291.157-291.157zM948.907 668.501l-46.421 46.421c-6.187 6.236-14.76 10.097-24.235 10.097s-18.048-3.86-24.232-10.094l-0.002-0.002-45.739-46.080 94.891-94.891 45.739 44.715c6.657 6.244 10.805 15.097 10.805 24.917s-4.148 18.673-10.787 24.9l-0.018 0.017z" />
<glyph unicode="&#xe073;" glyph-name="pen-lite" d="M890.197 806.059l-25.259 24.917c-16.335 16.476-38.976 26.676-64 26.676s-47.665-10.2-63.994-26.669l-0.006-0.006-31.744-31.403-48.128-48.469 152.917-152.917 48.469 48.128 31.744 31.744c16.311 16.41 26.392 39.028 26.392 64s-10.082 47.59-26.397 64.005l0.005-0.005zM841.728 726.187l-31.744-31.403-56.32 56.32 31.403 31.744c4.014 4.007 9.555 6.485 15.675 6.485 0.009 0 0.018 0 0.027 0h-0.001c0.134 0.003 0.292 0.005 0.451 0.005 5.988 0 11.394-2.487 15.244-6.484l0.006-0.007 25.259-25.259c3.942-4.053 6.373-9.593 6.373-15.701s-2.431-11.649-6.378-15.707l0.005 0.005zM650.24 647.68l-48.128 48.128-48.469-48.128-370.347-370.347-5.461-14.677-30.037-87.723-45.397-132.779 133.803 46.421 101.376 35.499 21.163 21.163 347.819 349.525 48.469 48.128-48.469 48.128zM308.907 193.707l-10.24-10.24-4.437-1.707-53.248 53.589v4.437l10.24 10.24 350.891 349.525 56.32-56.661z" />
<glyph unicode="&#xe074;" glyph-name="phone-line" d="M540.672-29.867c-9.216 0-18.091 0-26.624 1.707-28.016 2.998-53.661 9.871-77.512 20.119l1.736-0.663c-146.053 61.306-263.422 166.994-337.842 299.974l-1.784 3.471c-33.001 48.438-56.266 106.141-65.598 168.402l-0.279 2.265c-0.816 7.028-1.282 15.172-1.282 23.424 0 71.659 35.106 135.118 89.058 174.117l0.629 0.433c19.557 11.831 43.185 18.832 68.447 18.832 20.369 0 39.675-4.551 56.956-12.693l-0.816 0.346c13.287-8.335 23.063-21.221 27.206-36.429l0.101-0.435c11.264-35.84 22.187-71.339 34.133-106.837l9.557-30.72c1.842-5.562 2.905-11.965 2.905-18.617 0-12.512-3.761-24.145-10.214-33.831l0.14 0.224c-13.777-21.573-30.060-40.028-48.774-55.672l-0.378-0.307c39.188-82.4 102.641-147.944 181.039-188.714l2.257-1.068 7.851 7.509c13.995 13.995 27.989 27.989 40.96 42.667 11.227 13.692 28.144 22.359 47.085 22.359 12.034 0 23.251-3.499 32.689-9.534l-0.244 0.146c25.259-13.995 50.176-29.013 75.435-44.373l34.133-20.48c40.619-26.283 47.104-39.936 38.912-86.699-12.629-74.411-68.267-122.197-156.331-136.533-6.865-1.521-14.751-2.392-22.839-2.392-0.251 0-0.501 0.001-0.751 0.003h0.038zM191.147 614.229c-1.236 0.080-2.679 0.125-4.134 0.125-8.825 0-17.259-1.675-25.001-4.723l0.463 0.161c-38.081-27.098-62.623-71.076-62.623-120.786 0-5.547 0.306-11.023 0.901-16.411l-0.060 0.664c8.804-54.035 28.741-102.196 57.432-143.862l-0.771 1.185c68.777-123.627 174.984-219.365 303.122-273.252l4.078-1.522c16.52-7.351 35.681-12.649 55.755-14.935l0.906-0.084c4.665-0.647 10.055-1.017 15.531-1.017s10.866 0.369 16.146 1.085l-0.615-0.068c90.453 15.019 98.645 63.488 102.4 79.189 0 5.461 1.707 9.557 2.389 12.629l-9.899 6.485-34.133 20.139c-23.552 14.336-47.104 28.331-70.997 41.643-13.653-15.019-27.648-29.013-41.643-43.008l-10.24-10.24c-10.903-11.949-26.542-19.417-43.925-19.417-11.537 0-22.305 3.289-31.418 8.981l0.25-0.146c-95.391 48.771-170.609 125.529-216.178 219.353l-1.251 2.855c-5.004 8.549-7.959 18.825-7.959 29.791 0 19.221 9.079 36.322 23.182 47.249l0.137 0.102c14.32 11.775 26.706 25.136 37.122 39.98l0.425 0.639-8.875 28.331-34.133 105.813c-4.859 1.911-10.485 3.035-16.369 3.072h-0.015zM251.904 474.965v0zM507.563 789.333h-3.755c-18.851 0-34.133-15.282-34.133-34.133s15.282-34.133 34.133-34.133v0h3.755c153.028-0.58 276.925-124.477 277.504-277.449v-3.81c0-18.851 15.282-34.133 34.133-34.133s34.133 15.282 34.133 34.133v0 3.755c-0.388 190.808-154.963 345.383-345.733 345.771h-0.037zM507.563 921.429h-3.755c-18.851 0-34.133-15.282-34.133-34.133s15.282-34.133 34.133-34.133v0h3.755c226.216 0 409.6-183.384 409.6-409.6v0-3.755c0-18.851 15.282-34.133 34.133-34.133s34.133 15.282 34.133 34.133v0 3.755c0 263.918-213.948 477.867-477.867 477.867v0zM687.787 405.675c18.851 0 34.133 15.282 34.133 34.133v0 3.755c0 118.386-95.971 214.357-214.357 214.357h-3.755c-18.851 0-34.133-15.282-34.133-34.133s15.282-34.133 34.133-34.133v0h3.755c80.684 0 146.091-65.407 146.091-146.091v-3.755c0-18.851 15.282-34.133 34.133-34.133v0z" />
<glyph unicode="&#xe075;" glyph-name="trash-cancel-line" d="M887.467 891.733h-214.016l-17.408 46.080c-4.983 13.070-17.414 22.187-31.974 22.187-0.039 0-0.078 0-0.117 0h-227.322c-14.392-0.044-26.683-8.987-31.664-21.614l-0.080-0.231-18.432-46.421h-209.92c-18.851 0-34.133-15.282-34.133-34.133v0-68.267h819.2v68.267c0 18.851-15.282 34.133-34.133 34.133v0zM202.411-1.536c3.085-35.122 32.359-62.464 68.020-62.464 0.087 0 0.174 0 0.26 0h480.243c0.073 0 0.16 0 0.247 0 35.66 0 64.934 27.342 68.001 62.206l0.018 0.259 63.829 722.603h-743.424zM806.229 652.8l-55.296-585.728c-2.916-35.279-32.267-62.806-68.048-62.806-0.077 0-0.154 0-0.231 0h-348.831c-0.073 0-0.16 0-0.247 0-35.66 0-64.934 27.342-68.001 62.206l-0.018 0.259-55.979 586.069zM347.477 164.352c6.113-5.836 14.413-9.427 23.552-9.427s17.439 3.591 23.565 9.44l-0.013-0.013 117.419 117.077 117.077-117.077c6.093-5.739 14.325-9.266 23.381-9.266s17.288 3.527 23.399 9.282l-0.017-0.016c5.643 6.072 9.106 14.237 9.106 23.211s-3.463 17.139-9.126 23.232l0.020-0.021-117.077 117.76 117.077 116.736c3.733 5.393 5.963 12.074 5.963 19.275 0 18.851-15.282 34.133-34.133 34.133-7.202 0-13.882-2.23-19.389-6.038l0.114 0.074-116.395-117.077-117.077 117.077c-5.851 6.106-14.072 9.901-23.18 9.901-0.131 0-0.261-0.001-0.392-0.002h0.020c-9.2-0.136-17.498-3.891-23.554-9.901l0.002 0.002c-6.008-6.054-9.763-14.352-9.898-23.526v-0.026c0.136-9.2 3.891-17.498 9.901-23.554l-0.002 0.002 117.077-116.736-117.077-117.419c-5.939-6.134-9.599-14.505-9.599-23.731 0-9.052 3.524-17.281 9.274-23.39l-0.016 0.017z" />
<glyph unicode="&#xe076;" glyph-name="search-round-full" d="M512 960c-282.77 0-512-229.23-512-512s229.23-512 512-512c282.77 0 512 229.23 512 512v0c0 282.77-229.23 512-512 512v0zM750.933 209.067c-8.356-8.445-19.947-13.674-32.76-13.674-0.483 0-0.964 0.007-1.444 0.022l0.070-0.002c-0.575-0.026-1.25-0.042-1.928-0.042-12.642 0-24.059 5.247-32.192 13.681l-0.013 0.014-170.667 170.667c-29.73-18.481-65.81-29.437-104.448-29.437-110.469 0-200.021 89.553-200.021 200.021s89.553 200.021 200.021 200.021c110.44 0 199.975-89.506 200.021-199.935v-0.005c0.001-0.232 0.002-0.506 0.002-0.781 0-38.683-11.191-74.753-30.513-105.148l0.474 0.798 172.373-170.667c8.245-8.474 13.33-20.061 13.33-32.834 0-0.457-0.007-0.912-0.019-1.366l0.002 0.067c-0.016-12.133-4.684-23.173-12.316-31.434l0.028 0.031zM543.744 551.083c0-75.405-61.128-136.533-136.533-136.533s-136.533 61.128-136.533 136.533c0 75.405 61.128 136.533 136.533 136.533s136.533-61.128 136.533-136.533zM515.072 387.925v0 0 0z" />
<glyph unicode="&#xe077;" glyph-name="cart-line" d="M938.325 618.667h-102.4l-156.672 220.501c-5.811 11.072-17.228 18.495-30.379 18.495-18.886 0-34.196-15.31-34.196-34.196 0-5.736 1.412-11.141 3.908-15.889l-0.090 0.187 132.437-189.099h-477.867l132.779 188.075c2.419 4.566 3.84 9.981 3.84 15.728 0 13.149-7.434 24.561-18.329 30.262l-0.188 0.090c-4.566 2.419-9.981 3.84-15.728 3.84-13.149 0-24.561-7.434-30.262-18.329l-0.090-0.188-155.989-219.477h-102.4c-1.777 0.217-3.835 0.341-5.922 0.341-28.465 0-51.541-23.076-51.541-51.541s23.076-51.541 51.541-51.541c2.087 0 4.145 0.124 6.166 0.365l-0.244-0.024h23.211l26.624-409.6c0-37.703 30.564-68.267 68.267-68.267v0h614.4c37.703 0 68.267 30.564 68.267 68.267v0l27.989 409.6h22.187c1.777-0.217 3.835-0.341 5.922-0.341 28.465 0 51.541 23.076 51.541 51.541s-23.076 51.541-51.541 51.541c-2.087 0-4.145-0.124-6.166-0.365l0.244 0.024zM819.2 111.787v-5.12h-614.4v4.437l-27.307 405.163h670.379zM307.2 174.933c18.851 0 34.133 15.282 34.133 34.133v0 204.8c0 18.851-15.282 34.133-34.133 34.133s-34.133-15.282-34.133-34.133v0-204.8c0-18.851 15.282-34.133 34.133-34.133v0zM512 174.933c18.851 0 34.133 15.282 34.133 34.133v0 204.8c0 18.851-15.282 34.133-34.133 34.133s-34.133-15.282-34.133-34.133v0-204.8c0-18.851 15.282-34.133 34.133-34.133v0zM716.8 174.933c18.851 0 34.133 15.282 34.133 34.133v0 204.8c0 18.851-15.282 34.133-34.133 34.133s-34.133-15.282-34.133-34.133v0-204.8c0-18.851 15.282-34.133 34.133-34.133v0z" />
<glyph unicode="&#xe079;" glyph-name="videosale-line" d="M375.467 527.189c0.041 0.943 0.065 2.049 0.065 3.16 0 41.306-32.465 75.030-73.271 77.046l-0.18 0.007c-40.956-1.835-73.466-35.485-73.466-76.728 0-1.226 0.029-2.445 0.086-3.657l-0.006 0.171c-0.019-0.632-0.029-1.376-0.029-2.122 0-41.414 32.635-75.205 73.59-77.061l0.167-0.006c40.85 2.403 73.067 36.118 73.067 77.357 0 0.644-0.008 1.287-0.024 1.928l0.002-0.095zM280.576 527.189c0 15.36 9.899 28.331 21.504 28.331s21.504-12.971 21.504-28.331-9.899-28.672-21.504-28.672-21.163 12.971-21.163 28.672zM302.85 331.795l188.32 263.139c7.57 10.578 22.282 13.016 32.859 5.446l3.886-2.781c10.578-7.57 13.016-22.282 5.446-32.859l-188.32-263.139c-7.57-10.578-22.282-13.016-32.859-5.446l-3.886 2.781c-10.578 7.57-13.016 22.282-5.446 32.859zM534.869 454.485c-40.804-2.015-73.125-35.589-73.125-76.712 0-1.231 0.029-2.456 0.086-3.673l-0.006 0.172c-0.051-1.050-0.080-2.281-0.080-3.518 0-41.191 32.285-74.842 72.931-77.028l0.194-0.008c40.993 2.016 73.466 35.742 73.466 77.054 0 1.231-0.029 2.456-0.086 3.673l0.006-0.172c0.050 1.040 0.079 2.26 0.079 3.486 0 41.243-32.51 74.893-73.301 76.722l-0.165 0.006zM534.869 345.941c-11.605 0-21.163 12.971-21.163 28.331s9.557 28.331 21.163 28.331 21.504-12.971 21.504-28.331-10.24-28.672-21.504-28.672zM1004.203 497.835l-221.867 223.232c-12.368 12.44-29.492 20.139-48.415 20.139-0.019 0-0.038 0-0.057 0h-665.597c-37.703 0-68.267-30.564-68.267-68.267v0-447.488c0-37.703 30.564-68.267 68.267-68.267v0h665.6c0.016 0 0.035 0 0.054 0 18.923 0 36.047 7.699 48.412 20.135l0.003 0.003 221.867 223.915c12.37 12.356 20.022 29.434 20.022 48.299s-7.652 35.942-20.021 48.298l-0.001 0.001zM872.448 361.301v0l-114.688-115.712c-12.368-12.44-29.492-20.139-48.415-20.139-0.019 0-0.038 0-0.057 0h-572.754c-37.703 0-68.267 30.564-68.267 68.267v0 311.637c0 37.703 30.564 68.267 68.267 68.267v0h572.757c19.034-0.178 36.18-8.118 48.451-20.803l0.018-0.019 111.616-112.981 93.867-89.088z" />
<glyph unicode="&#xe080;" glyph-name="voucher-icon-full" d="M1024 614.229v106.837c0 37.703-30.564 68.267-68.267 68.267v0h-887.467c-37.703 0-68.267-30.564-68.267-68.267v0-107.179c71.834-22.462 123.186-88.083 123.903-165.804l0.001-0.084c0.001-0.17 0.001-0.372 0.001-0.573 0-78.503-51.559-144.964-122.662-167.366l-1.243-0.338v-104.789c0-37.703 30.564-68.267 68.267-68.267v0h887.467c37.703 0 68.267 30.564 68.267 68.267v0 104.789c-72.406 22.442-124.084 88.813-124.084 167.253s51.678 144.811 122.846 166.922l1.238 0.331zM736.939 174.933h-68.267v136.533h68.267zM736.939 379.733h-68.267v136.533h68.267zM736.939 584.533h-68.267v136.533h68.267z" />
<glyph unicode="&#xe081;" glyph-name="round-social-facebook-full" d="M512 960c-282.77 0-512-229.23-512-512s229.23-512 512-512c282.77 0 512 229.23 512 512v0c0 282.77-229.23 512-512 512v0zM665.941 500.907l-5.12-52.907h-102.4v-337.92h-138.923v337.92h-68.267v134.827h68.267v61.44c-0.183 2.618-0.287 5.674-0.287 8.754 0 73.709 59.753 133.461 133.461 133.461 4.308 0 8.567-0.204 12.77-0.603l-0.536 0.041h106.837v-116.395h-77.824c-0.652 0.052-1.411 0.082-2.177 0.082-16.024 0-29.013-12.99-29.013-29.013 0-1.839 0.171-3.638 0.498-5.382l-0.028 0.18v-54.272h110.251z" />
<glyph unicode="&#xe082;" glyph-name="round-social-instagram-full" d="M634.539 672.597h-244.736c-56.554 0-102.4-45.846-102.4-102.4v0-244.736c0-56.554 45.846-102.4 102.4-102.4v0h244.736c56.554 0 102.4 45.846 102.4 102.4v0 244.736c0 56.554-45.846 102.4-102.4 102.4v0zM512 307.371c-77.667 0-140.629 62.962-140.629 140.629s62.962 140.629 140.629 140.629c77.667 0 140.629-62.962 140.629-140.629v0c-0.194-77.59-63.040-140.436-140.611-140.629h-0.018zM682.667 569.173c-6.256-6.766-15.179-10.989-25.088-10.989s-18.832 4.222-25.067 10.966l-0.021 0.023c-6.275 6.36-10.151 15.1-10.151 24.747 0 19.462 15.777 35.239 35.239 35.239 9.816 0 18.694-4.013 25.084-10.489l0.004-0.004c6.766-6.256 10.989-15.179 10.989-25.088s-4.222-18.832-10.966-25.067l-0.023-0.021zM512 540.16c-50.899 0-92.16-41.261-92.16-92.16s41.261-92.16 92.16-92.16c50.899 0 92.16 41.261 92.16 92.16v0c0 50.899-41.261 92.16-92.16 92.16v0zM512 960c-282.77 0-512-229.23-512-512s229.23-512 512-512c282.77 0 512 229.23 512 512v0c0 282.77-229.23 512-512 512v0zM785.067 325.461c-0.194-83.056-67.472-150.334-150.509-150.528h-244.755c0 0 0 0 0 0-83.203 0-150.675 67.352-150.869 150.509v244.755c0 83.323 67.547 150.869 150.869 150.869v0h244.736c83.176-0.194 150.528-67.666 150.528-150.869 0 0 0 0 0 0v0z" />
<glyph unicode="&#xe083;" glyph-name="round-social-snapchat-full" d="M512 960c-282.77 0-512-229.23-512-512s229.23-512 512-512c282.77 0 512 229.23 512 512v0c0 282.77-229.23 512-512 512v0zM804.523 290.645l-5.12-4.779c-9.708-6.437-21.267-10.914-33.715-12.583l-0.418-0.046c-4.724-1.848-10.191-3.071-15.896-3.406l-0.147-0.007c-4.779-1.707-12.629-1.707-17.749-3.072s-9.557-16.043-11.264-24.235 0-6.485 0-9.557 0-4.779-3.413-4.779-9.557 0-14.336 0c-10.078 1.878-21.848 3.107-33.848 3.408l-0.286 0.006c-0.725 0.020-1.578 0.031-2.434 0.031-12.392 0-24.226-2.393-35.064-6.741l0.634 0.225c-12.372-5.65-23.027-12.148-32.797-19.733l0.37 0.277c-15.904-12.783-34.697-22.735-55.181-28.728l-1.139-0.286c-9.104-1.985-19.563-3.122-30.287-3.122-1.352 0-2.701 0.018-4.044 0.054l0.198-0.004c-12.374 0.516-24.037 2.85-34.961 6.743l0.828-0.257c-21.584 10.722-40.034 22.072-57.354 34.863l1.034-0.73c-9.817 6.174-21.194 11.099-33.313 14.16l-0.82 0.176c-6.048 0.827-13.038 1.3-20.139 1.3s-14.090-0.472-20.94-1.387l0.801 0.088c-4.779 0-9.557 0-14.336 0-4.846-1.71-10.443-2.815-16.262-3.068l-0.122-0.004s0 0-3.072 3.072-1.707 6.485-3.072 9.899-1.707 9.557-3.413 16.043-3.072 7.851-7.851 9.557-11.264 1.707-17.749 3.072-19.456 5.12-30.72 6.485c-9.362 2.686-17.472 7.149-24.318 13.041l0.084-0.070v1.707s0 0 0 0c11.386 2.389 21.102 5.213 30.509 8.674l-1.496-0.482c18.009 7.322 33.491 17.107 46.911 29.144l-0.149-0.131c19.718 17.339 35.876 38.187 47.6 61.639l0.528 1.167c4.77 7.315 8.238 15.935 9.84 25.193l0.058 0.407c3.072 22.528-14.677 34.133-34.133 41.984-11.304 3.375-20.921 7.203-30.115 11.757l1.101-0.493c-4.779 0-12.971 6.485-11.264 12.629s6.485 8.192 9.557 9.899c1.23 0.311 2.642 0.489 4.096 0.489s2.866-0.178 4.216-0.514l-0.12 0.025c3.568-0.248 6.832-1.359 9.644-3.123l-0.087 0.051c7.329-3.040 15.842-4.806 24.767-4.806 2.458 0 4.884 0.134 7.272 0.395l-0.295-0.026c6.285 1.179 11.754 4.086 16.054 8.203l-0.011-0.011c1.707 0 1.707 0 1.707 3.072v8.192c0.014 0.573 0.021 1.248 0.021 1.925 0 6.084-0.629 12.022-1.826 17.751l0.098-0.561c-0.815 10.826-1.28 23.449-1.28 36.181s0.465 25.355 1.378 37.854l-0.098-1.673c0.062 10.988 1.805 21.546 4.984 31.462l-0.205-0.742c3.931 11.187 8.424 20.764 13.739 29.799l-0.427-0.785c10.006 16.78 22.911 30.774 38.16 41.704l0.41 0.28c21.468 14.952 47.691 24.529 76.035 26.262l0.424 0.021h27.307c0.048 0 0.104 0 0.161 0 23.983 0 46.701-5.412 67.001-15.082l-0.943 0.404c34.559-15.616 61.292-43.458 75.092-77.88l0.343-0.968c5.429-15.457 8.566-33.279 8.566-51.834 0-3.861-0.136-7.689-0.403-11.482l0.029 0.511c0.398-5.108 0.625-11.061 0.625-17.067s-0.227-11.959-0.672-17.851l0.048 0.784c0.068-1.042 0.107-2.26 0.107-3.486 0-5.069-0.662-9.983-1.903-14.661l0.090 0.398v-9.557s0-4.779 0-6.485c2.77-4.811 7.377-8.3 12.838-9.532l0.132-0.025c3.665-1.129 7.878-1.779 12.242-1.779 7.251 0 14.084 1.795 20.077 4.964l-0.234-0.113c6.485 0 11.264 6.485 17.749 4.779 5.724-0.434 10.82-2.824 14.688-6.495l-0.010 0.010c1.389-1.465 2.243-3.449 2.243-5.632s-0.854-4.167-2.247-5.636l0.003 0.004c-6.467-6.281-14.723-10.753-23.931-12.579l-0.304-0.050-27.307-9.899c-8.748-4.478-15.548-11.719-19.353-20.553l-0.103-0.268c-0.642-3.153-1.010-6.776-1.010-10.485 0-7.805 1.627-15.23 4.561-21.954l-0.138 0.354c8.738-17.834 18.396-33.17 29.459-47.356l-0.445 0.593c21.086-26.915 49.584-47.141 82.419-57.691l1.208-0.335c4.207-1.576 9.081-2.669 14.152-3.061l0.184-0.011c1.707 0 3.413 0 3.413 0z" />
<glyph unicode="&#xe084;" glyph-name="round-social-twitter-full" d="M512 960c-282.77 0-512-229.23-512-512s229.23-512 512-512c282.77 0 512 229.23 512 512v0c0 282.77-229.23 512-512 512v0zM746.837 562.005v-16.043c0.024-1.524 0.038-3.321 0.038-5.123 0-192.005-155.273-347.744-347.101-348.499h-0.072c-69.731 0.109-134.565 20.986-188.671 56.774l1.279-0.795c4.385-0.248 9.514-0.389 14.677-0.389s10.293 0.141 15.386 0.42l-0.709-0.031c0.015 0 0.033 0 0.050 0 57.497 0 110.338 19.939 151.984 53.28l-0.482-0.373c-53.481 1.498-98.297 36.944-113.766 85.487l-0.239 0.87c6.82-1.303 14.665-2.048 22.683-2.048 0.065 0 0.131 0 0.196 0h-0.010c0.17-0.001 0.372-0.001 0.574-0.001 11.204 0 22.058 1.495 32.375 4.297l-0.863-0.2c-56.409 12.524-97.963 62.126-97.963 121.434 0 0.148 0 0.297 0.001 0.445v-0.023c16.029-9.155 35.081-14.877 55.397-15.694l0.24-0.008c-33.138 22.874-54.577 60.642-54.577 103.417 0 22.995 6.196 44.543 17.009 63.066l-0.321-0.594c59.95-75.004 149.509-124.172 250.688-129.669l0.875-0.038c-1.954 8.322-3.074 17.877-3.074 27.693 0 0.224 0.001 0.448 0.002 0.672v-0.035c-0.003 0.305-0.004 0.665-0.004 1.026 0 67.626 54.629 122.493 122.165 122.878h0.037c35.164-0.010 66.836-14.955 89.018-38.836l0.070-0.076c29.361 5.794 55.453 16.23 78.849 30.624l-1.025-0.587c-9.546-28.927-28.45-52.585-53.061-67.959l-0.529-0.308c25.944 3.034 49.594 9.897 71.401 20.053l-1.427-0.597c-16.683-25.31-36.973-46.687-60.423-64.035l-0.675-0.477z" />
</font>
</defs>
</svg>
